<svg width="43" height="44" viewBox="0 0 43 44" fill="none" xmlns="http://www.w3.org/2000/svg">
<g clip-path="url(#clip0_495_193)">
<path d="M21.3902 26.5544L24.9465 39.8268C25.0549 40.2313 25.4721 40.4721 25.8766 40.3637C26.0275 40.3233 26.1633 40.2384 26.2636 40.1177L30.0327 35.6266L35.5425 37.6314C35.6897 37.6858 35.8497 37.6914 36.0007 37.651C36.4051 37.5426 36.646 37.1254 36.5376 36.721L32.9813 23.4485C32.767 22.6486 31.9441 22.1735 31.1442 22.3879L22.4508 24.7172C21.6509 24.9316 21.1758 25.7545 21.3902 26.5544Z" fill="#F7645E"/>
</g>
<g clip-path="url(#clip1_495_193)">
<path d="M8.75484 23.4489L5.1985 36.7213C5.09012 37.1258 5.33098 37.543 5.73546 37.6514C5.88639 37.6918 6.04643 37.6861 6.19364 37.6318L11.7034 35.627L15.4726 40.1181C15.5729 40.2388 15.7086 40.3237 15.8596 40.3641C16.2641 40.4725 16.6812 40.2316 16.7896 39.8271L20.3459 26.5547C20.5603 25.7548 20.0852 24.9319 19.2853 24.7176L10.592 22.3882C9.79205 22.1739 8.96917 22.649 8.75484 23.4489Z" fill="#F7645E"/>
</g>
<g clip-path="url(#clip2_495_193)">
<path d="M18.1896 2.45587C17.8146 2.06212 17.2521 1.91212 16.7271 2.04962C16.2021 2.18712 15.7958 2.60587 15.6583 3.13087L14.6708 7.03712L10.7958 5.94337C10.2708 5.79337 9.70831 5.94337 9.32706 6.32462C8.94581 6.70587 8.79582 7.26837 8.94582 7.79337L10.0396 11.6684L6.13332 12.6621C5.60832 12.7934 5.19582 13.2059 5.05207 13.7309C4.90832 14.2559 5.06457 14.8121 5.45832 15.1871L8.34582 17.9996L5.45832 20.8121C5.06457 21.1871 4.91457 21.7496 5.05207 22.2746C5.18957 22.7996 5.60832 23.2059 6.13332 23.3434L10.0396 24.3309L8.94582 28.2059C8.79582 28.7309 8.94581 29.2934 9.32706 29.6746C9.70831 30.0559 10.2708 30.2059 10.7958 30.0559L14.6708 28.9621L15.6583 32.8684C15.7896 33.3934 16.2021 33.8059 16.7271 33.9496C17.2521 34.0934 17.8083 33.9371 18.1896 33.5496L21.0021 30.6621L23.8146 33.5496C24.1958 33.9371 24.7521 34.0934 25.2771 33.9496C25.8021 33.8059 26.2083 33.3934 26.3458 32.8684L27.3333 28.9621L31.2083 30.0559C31.7333 30.2059 32.2958 30.0559 32.6771 29.6746C33.0583 29.2934 33.2083 28.7309 33.0583 28.2059L31.9646 24.3309L35.8708 23.3434C36.3958 23.2121 36.8083 22.7996 36.9521 22.2746C37.0958 21.7496 36.9396 21.1871 36.5521 20.8121L33.6646 17.9996L36.5521 15.1871C36.9396 14.8059 37.0958 14.2496 36.9521 13.7246C36.8083 13.1996 36.3958 12.7934 35.8708 12.6559L31.9646 11.6684L33.0583 7.79337C33.2083 7.26837 33.0583 6.70587 32.6771 6.32462C32.2958 5.94337 31.7333 5.79337 31.2083 5.94337L27.3333 7.03712L26.3396 3.13087C26.2083 2.60587 25.7958 2.19337 25.2708 2.04962C24.7458 1.90587 24.1896 2.06212 23.8146 2.45587L21.0021 5.34337L18.1896 2.45587Z" fill="#F7D061"/>
<g clip-path="url(#clip3_495_193)">
<path d="M21.002 28C23.6541 28 26.1977 26.9464 28.073 25.0711C29.9484 23.1957 31.002 20.6522 31.002 18C31.002 15.3478 29.9484 12.8043 28.073 10.9289C26.1977 9.05357 23.6541 8 21.002 8C18.3498 8 15.8062 9.05357 13.9309 10.9289C12.0555 12.8043 11.002 15.3478 11.002 18C11.002 20.6522 12.0555 23.1957 13.9309 25.0711C15.8062 26.9464 18.3498 28 21.002 28Z" fill="#F7EDC0"/>
<g clip-path="url(#clip4_495_193)">
<path d="M15.502 12.75C14.6746 12.75 14.002 13.4227 14.002 14.25L14.002 15L27.502 15L27.502 14.25C27.502 13.4227 26.8293 12.75 26.002 12.75L15.502 12.75ZM27.502 17.25L14.002 17.25L14.002 21.75C14.002 22.5773 14.6746 23.25 15.502 23.25L26.002 23.25C26.8293 23.25 27.502 22.5773 27.502 21.75L27.502 17.25ZM16.627 20.25L18.127 20.25C18.3332 20.25 18.502 20.4187 18.502 20.625C18.502 20.8313 18.3332 21 18.127 21L16.627 21C16.4207 21 16.252 20.8313 16.252 20.625C16.252 20.4187 16.4207 20.25 16.627 20.25ZM19.252 20.625C19.252 20.4187 19.4207 20.25 19.627 20.25L22.627 20.25C22.8332 20.25 23.002 20.4187 23.002 20.625C23.002 20.8313 22.8332 21 22.627 21L19.627 21C19.4207 21 19.252 20.8313 19.252 20.625Z" fill="#23A95C"/>
</g>
</g>
</g>
<defs>
<clipPath id="clip0_495_193">
<rect width="12" height="16" fill="white" transform="translate(21.002 28.1055) rotate(-15)"/>
</clipPath>
<clipPath id="clip1_495_193">
<rect width="12" height="16" fill="white" transform="translate(9.14307 25) rotate(15)"/>
</clipPath>
<clipPath id="clip2_495_193">
<rect width="32" height="32" fill="white" transform="translate(5.00195 2)"/>
</clipPath>
<clipPath id="clip3_495_193">
<rect width="20" height="20" fill="white" transform="translate(11.002 8)"/>
</clipPath>
<clipPath id="clip4_495_193">
<rect width="13.5" height="12" fill="white" transform="translate(14.002 12)"/>
</clipPath>
</defs>
</svg>
