<svg width="43" height="44" viewBox="0 0 43 44" fill="none" xmlns="http://www.w3.org/2000/svg">
<g clip-path="url(#clip0_495_180)">
<path d="M21.3882 26.5544L24.9446 39.8268C25.0529 40.2313 25.4701 40.4721 25.8746 40.3637C26.0255 40.3233 26.1613 40.2384 26.2616 40.1177L30.0308 35.6266L35.5405 37.6314C35.6877 37.6858 35.8478 37.6914 35.9987 37.651C36.4032 37.5426 36.6441 37.1254 36.5357 36.721L32.9793 23.4485C32.765 22.6486 31.9421 22.1735 31.1422 22.3879L22.4489 24.7172C21.649 24.9316 21.1739 25.7545 21.3882 26.5544Z" fill="#F7645E"/>
</g>
<g clip-path="url(#clip1_495_180)">
<path d="M8.75288 23.4489L5.19655 36.7213C5.08817 37.1258 5.32903 37.543 5.73351 37.6514C5.88443 37.6918 6.04447 37.6861 6.19169 37.6318L11.7014 35.627L15.4706 40.1181C15.5709 40.2388 15.7067 40.3237 15.8576 40.3641C16.2621 40.4725 16.6793 40.2316 16.7877 39.8271L20.344 26.5547C20.5583 25.7548 20.0832 24.9319 19.2833 24.7176L10.59 22.3882C9.79009 22.1739 8.96722 22.649 8.75288 23.4489Z" fill="#F7645E"/>
</g>
<g clip-path="url(#clip2_495_180)">
<path d="M18.1876 2.45587C17.8126 2.06212 17.2501 1.91212 16.7251 2.04962C16.2001 2.18712 15.7939 2.60587 15.6564 3.13087L14.6689 7.03712L10.7939 5.94337C10.2689 5.79337 9.70636 5.94337 9.32511 6.32462C8.94386 6.70587 8.79386 7.26837 8.94386 7.79337L10.0376 11.6684L6.13136 12.6621C5.60636 12.7934 5.19386 13.2059 5.05011 13.7309C4.90636 14.2559 5.06261 14.8121 5.45636 15.1871L8.34386 17.9996L5.45636 20.8121C5.06261 21.1871 4.91261 21.7496 5.05011 22.2746C5.18761 22.7996 5.60636 23.2059 6.13136 23.3434L10.0376 24.3309L8.94386 28.2059C8.79386 28.7309 8.94386 29.2934 9.32511 29.6746C9.70636 30.0559 10.2689 30.2059 10.7939 30.0559L14.6689 28.9621L15.6564 32.8684C15.7876 33.3934 16.2001 33.8059 16.7251 33.9496C17.2501 34.0934 17.8064 33.9371 18.1876 33.5496L21.0001 30.6621L23.8126 33.5496C24.1939 33.9371 24.7501 34.0934 25.2751 33.9496C25.8001 33.8059 26.2064 33.3934 26.3439 32.8684L27.3314 28.9621L31.2064 30.0559C31.7314 30.2059 32.2939 30.0559 32.6751 29.6746C33.0564 29.2934 33.2064 28.7309 33.0564 28.2059L31.9626 24.3309L35.8689 23.3434C36.3939 23.2121 36.8064 22.7996 36.9501 22.2746C37.0939 21.7496 36.9376 21.1871 36.5501 20.8121L33.6626 17.9996L36.5501 15.1871C36.9376 14.8059 37.0939 14.2496 36.9501 13.7246C36.8064 13.1996 36.3939 12.7934 35.8689 12.6559L31.9626 11.6684L33.0564 7.79337C33.2064 7.26837 33.0564 6.70587 32.6751 6.32462C32.2939 5.94337 31.7314 5.79337 31.2064 5.94337L27.3314 7.03712L26.3376 3.13087C26.2064 2.60587 25.7939 2.19337 25.2689 2.04962C24.7439 1.90587 24.1876 2.06212 23.8126 2.45587L21.0001 5.34337L18.1876 2.45587Z" fill="#F7D061"/>
<g clip-path="url(#clip3_495_180)">
<path d="M21 28C23.6522 28 26.1957 26.9464 28.0711 25.0711C29.9464 23.1957 31 20.6522 31 18C31 15.3478 29.9464 12.8043 28.0711 10.9289C26.1957 9.05357 23.6522 8 21 8C18.3478 8 15.8043 9.05357 13.9289 10.9289C12.0536 12.8043 11 15.3478 11 18C11 20.6522 12.0536 23.1957 13.9289 25.0711C15.8043 26.9464 18.3478 28 21 28Z" fill="#F7EDC0"/>
<g clip-path="url(#clip4_495_180)">
<path d="M21 10C21.5532 10 22 10.4469 22 11L22 12.1156C22.05 12.1219 22.0969 12.1281 22.1469 12.1375C22.1594 12.1406 22.1688 12.1406 22.1813 12.1437L23.6813 12.4188C24.225 12.5188 24.5844 13.0406 24.4844 13.5812C24.3844 14.1219 23.8625 14.4844 23.3219 14.3844L21.8375 14.1125C20.8594 13.9688 19.9969 14.0656 19.3907 14.3063C18.7844 14.5469 18.5407 14.8781 18.4844 15.1844C18.4219 15.5187 18.4688 15.7063 18.5219 15.8219C18.5782 15.9438 18.6938 16.0812 18.9219 16.2344C19.4313 16.5687 20.2125 16.7875 21.225 17.0563L21.3157 17.0813C22.2094 17.3188 23.3032 17.6062 24.1157 18.1375C24.5594 18.4281 24.9782 18.8219 25.2375 19.3719C25.5032 19.9312 25.5594 20.5563 25.4375 21.2219C25.2219 22.4094 24.4032 23.2031 23.3875 23.6187C22.9594 23.7937 22.4938 23.9062 22 23.9625L22 25.0063C22 25.5594 21.5532 26.0063 21 26.0063C20.4469 26.0063 20 25.5594 20 25.0063L20 23.9156C19.9875 23.9125 19.9719 23.9125 19.9594 23.9094L19.9532 23.9094C19.1907 23.7906 17.9375 23.4625 17.0938 23.0875C16.5907 22.8625 16.3625 22.2719 16.5875 21.7688C16.8125 21.2656 17.4032 21.0375 17.9063 21.2625C18.5594 21.5531 19.6344 21.8406 20.2563 21.9375C21.2532 22.0844 22.075 22 22.6313 21.7719C23.1594 21.5563 23.4 21.2437 23.4688 20.8687C23.5282 20.5375 23.4813 20.3469 23.4282 20.2312C23.3688 20.1062 23.2532 19.9688 23.0219 19.8156C22.5094 19.4813 21.725 19.2625 20.7094 18.9937L20.6219 18.9719C19.7313 18.7281 18.6375 18.4375 17.825 17.9063C17.3813 17.6156 16.9657 17.2187 16.7063 16.6687C16.4438 16.1094 16.3907 15.4844 16.5157 14.8187C16.7407 13.625 17.6344 12.85 18.65 12.4469C19.0657 12.2813 19.5219 12.1688 20 12.1031L20 11C20 10.4469 20.4469 10 21 10Z" fill="#23A95C"/>
</g>
</g>
</g>
<defs>
<clipPath id="clip0_495_180">
<rect width="12" height="16" fill="white" transform="translate(21 28.1055) rotate(-15)"/>
</clipPath>
<clipPath id="clip1_495_180">
<rect width="12" height="16" fill="white" transform="translate(9.14111 25) rotate(15)"/>
</clipPath>
<clipPath id="clip2_495_180">
<rect width="32" height="32" fill="white" transform="translate(5 2)"/>
</clipPath>
<clipPath id="clip3_495_180">
<rect width="20" height="20" fill="white" transform="translate(11 8)"/>
</clipPath>
<clipPath id="clip4_495_180">
<rect width="10" height="16" fill="white" transform="translate(16 10)"/>
</clipPath>
</defs>
</svg>
