<?xml version="1.0" encoding="UTF-8"?>
<svg id="Layer_2" data-name="Layer 2" xmlns="http://www.w3.org/2000/svg" xmlns:xlink="http://www.w3.org/1999/xlink" viewBox="0 0 704 665.82">
  <defs>
    <style>
      .cls-1, .cls-2, .cls-3 {
        fill: none;
      }

      .cls-4, .cls-5, .cls-6, .cls-7, .cls-8, .cls-9 {
        fill-rule: evenodd;
      }

      .cls-4, .cls-10 {
        fill: #fff;
      }

      .cls-5 {
        fill: gray;
      }

      .cls-10, .cls-3 {
        font-family: LucidaSans, LucidaSans;
        font-size: 49.15px;
      }

      .cls-7 {
        fill: #4c4c4d;
      }

      .cls-8 {
        fill: #cf3014;
      }

      .cls-2 {
        stroke-width: 1.52px;
      }

      .cls-2, .cls-3 {
        stroke: #fff;
        stroke-miterlimit: 22.93;
      }

      .cls-9 {
        fill: #1d2122;
      }

      .cls-11 {
        clip-path: url(#clippath);
      }

      .cls-3 {
        stroke-width: 1.6px;
      }
    </style>
    <clipPath id="clippath">
      <rect class="cls-1" width="704" height="665.82"/>
    </clipPath>
  </defs>
  <g id="Layer_1-2" data-name="Layer 1">
    <g class="cls-11">
      <path class="cls-6" d="M602.85,112.36c18.42-16.24,5.74-21.5,5.9-28.8.19-8.72.9-13.29-4.22-19.21-9.98-11.54-18.88-8.88-23.89-12.86-8.11-6.45-6-6.98-20.5-15.19-32.83-18.6-81.88-28.78-119.7-18.81-26.72,7.05-42.25,22.83-41.95,55.21-8.2-2.14-13.92-5.94-24.39-6.89-11.91-1.09-16.36,2.7-25.19,3.31-8.95-35.23-28.33-59.64-67.88-57.01-42.48,2.83-42.82,23.68-51.61,26.48-5.36,1.71-6.64,1.33-11.56,4.32-7.12,4.32-11.92,8.94-16.41,14.19-1.8-1.18-4.19-3.03-6.92-4.4-3.28-1.65-5.68-1.59-9.08-2.94-4.11-1.64-7-5.96-14.98-8.75-11.5-4.02-29.27-5.65-40.93-1.09-30.64,11.98-19.75,60.58-20.53,68.59l-17.87-13.43c2.85,18.35,16.21,43.06,26.77,51.11,13.14,10.01,21.11,6.17,25.54,13.15,6.28,9.9,5.35,23.22,8.44,28.85,1.82-3.26,5.53-12.28,5.44-16.05,5.3,31.09,8.8,49.61,44.49,65.63-1.8-6.76-7.02-11.73-8.51-27.51l21.98,3.36c-.04,11.24-2.29,21.47-1.67,34.39,1.24,25.51,14.42,65.8,30.12,77.6l2.66-12.18c1.42,1.38,25.73,40.92,35.89,53.34,7.49,9.16,35.79,41.33,44.83,45.56l-.02-9.48,20.4,18.74c5.66,5.34,15.12,13.02,21.84,17.09,10.75-3.97,39.01-34.27,42.56-35.99l.13,9.87c3.95-1.67,20.15-18,23.77-21.73,15.17-15.64,27.05-31.49,39.39-49.92l17.17-27.12c2.38,4.49.6,8.13,4.27,11.78,14.78-22.26,23.2-35.1,27.52-64.63.71-4.82.75-10.1,1.35-14.92,1-8.11,19.23-13.52,23.8-52.36,3.57-30.29-6.3-47.06-6.09-53.35,13.77-1.88,13.74.81,24.91,2.08,11.94,1.36,12-5.12,16.51-10.51,8.4,4.3,9.29,16.32,10.8,20.81l1.1,2.26c6.56-3.96,5.17-5.08,8.93-11.4,4.35,2.63,5.46,6.91,7.94,10.91,7.88-9.11,3.76-30.16-14.18-38.02l3.66-4.06ZM412.35,63.1c-16.49-33.11,60.64-66.59,143.39-21.42,12.6,6.88,20.89,14.19,29.98,23.62,2.75,2.85,4.42,6.22,7.6,8.93-1.15-6.45-5.44-9.2-7.93-13.87,22.93,4.87,16.76,25.72,16.79,25.88,4.82,8.29,6.09,6.16,1.5,16.98-5.09-1.27-4-3.58-10.81-2.95-12.41,1.16-17.19,1.05-31.25-6.9-32.25-18.24-17.58-33.58-36.51-27.02,2.56,3.05,8.9,5.74,12,8.86,13.64,13.72,11.13,33.38,16.92,45.37,1.81-.42,1.76-.43,3.2-1.2l1.93-1.24c.11-.33.43-.32.65-.46l1.98,5.92c10.82,2.95,8.7,3.82,15.8.17,2.86,14.46-8.18,12.8-19.46,9.89-10.72-2.77-17.32-5.69-20.07-14.71,2.98,1.61,6.86,5.19,6.59-1.59-.45-11.14-11.56-24.18-14.43-29.88,7.15,2.9,6.3,5.38,10.85,9.82-.92-16.71-25.78-22.68-26.9-33.03-1.32-12.21,23.72-17.33,40.36-5.51l-3.57.62c-.25.07-.63.23-.84.3l-1.73.77c-.08,9.74,3.42,14.05,8.99,17.3,2.46,1.44,7.12,2.8,8.8,4.08,3.76,2.88,1.17,4.05,6.46,6.22-4.02-17.67-1.29-29.09-15.9-37.45-5.63-3.22-14.03-5.19-21.73-5.01-6.27.15-6.15,2.06-11.65-.24-22.78-9.52-52.49-16.34-76.91-6.98-3.25,1.25-5.9,2.51-8.61,4.28-2.18,1.42-5.09,4.73-7.48,4.26l-2.21-5.83c-.07-.46-.25-.57-.44-.81-3.97,15.39,6.69,19.06,20.38,23.66,25.78,8.66,79.91,16.69,83.63,59.63l-4.08-3.27c-.93-1.04-1.13-1.55-2.2-2.69-3.77-4.02-13.21-10.82-18.65-12.52l1.27-5.46c-11.66,3.8-8.34-.19-19.47-3.02l1.78-6.34c-12.2,3.24-.05,4.93-20.14.61l1.68-6.03c-12.58,3.88-5.29,5.91-21.21,1.16l1.62-6.49c-4.18.51-6.85,3.68-10.46,3.56-2.29-.07-7.47-2.68-10.89-3.42l3.53-7.98c-13.84,3.98-5.6,5.95-17.66-2.23l3.56-8.28-8.04,1.94ZM469.75,53.45c2.75-4.61,6.39-8.91,12.57-10.71-1.8,3.91-4.03,4.58-4.45,10.56l9.51,1.6c4.02-3.57,5.5-6.51,13.45-7.73-2.99,5.07-4.24,3.6-5.26,10.15,4.65,2.03,9.53,5.62,11.2,9.84-4.48-.97-8.22-3.43-13.66-4.62-20.56-4.51-39.79,2.43-47.11-4.92,5.06-2.4,3.9-.33,7.6-5.16,2.08-2.71,3.51-4.49,7.11-6.08l-1.55,7.79,10.6-.72ZM232.41,59.35c-.91-3.88,5.75-14.64,7.94-17.72,18.87-26.5,65.74-32.9,88.5,1.78,4,6.1,6.31,11.18,8.6,18.21,2.83,8.69,6.18,15.06-6.79,13.37-.22.16-.54.3-.72.37l-3.23,1.11c-14.53,3.66-13.35,4.86-21.54,7.23.87-14.1,4.33-18.95,9.26-28.97-7.75.83-15.78,6.34-21.13,10.07-3.27,2.28-5.84,4.87-8.38,7.49-1.98,2.05-4.88,6.41-6.87,7.58-5.04-3.6-5.34-9.16-4.59-17.02l-7.27,2.2-3.96-8.44c-18.14,13.06-13.86,3.31-32.46,7.63,1.11-4.85-.24-2.36,2.64-4.88ZM215.14,55.88l-1.47,9.19,9.65-6.44c-.71,3.5-1.23,5.79-1.75,9.76-.82,6.2-1.35,3.68-3.16,8.75-1.41,3.95-3.45,14.87-4.05,19.29l2.32-3.12c7.29-13.21,2.64-21.16,29.56-23.43,6.29-.53,9.01-2.81,13.99-4l-1.36,7.98c5.49-.58,5.67-1.51,10.18-3-5.3,21.02-38.5,6.66-47.13,35.89,7.17,1.52,14.61,1.49,21.96.79.03-3.27-.84-3.38.46-5.73,6.54,2.52,9.32,4.94,12.14,10.23-.77,3.66-3.54,7.12-4.9,11.15-1.4,4.16-2.36,8.53-3.01,13.52l-4.99-3.63c-1.65,7.88-3.78,13.4-9.17,15.84-1.38-2.62-2.88-8.21-3.76-11.32-3.35,3.24-1.27,3.67-8.73,9.61l3.54,1.48c-4.81,3.5-3.06,6.04-2.93,12.74-5.8-2.29-12.09-1.78-19.26-1.33.03-9.58,8.14-6.78,2.63-13.44l6.09.59c5.44-19.25-6.32-.61-22.54-1.36-.61-9.12.1-13.38,1.5-21.84-3.79,1.91-1.96,2.11-5.56,4.84l-1.96-9.89c3.11-2.66,5.61-3.92,7.28-7.94-1.64-2.45-4.85-5.24-7.92-7.9-6.39-5.53-3.77-3.34-7.9-.66-7.68-1.78-12.74-3.67-14.5-10.53,12.16.27,18.32-1.83,24.9-8.02-4.47-3.68-7.2-3.18-10.28-7.83,6.75.05,12.36.11,18.84-2.18l-6.6-13.05c7.95.01,10.29,5.66,14.42,9.57l13.47-14.56ZM565.45,77.02c-5.31-2.18-9.36-6.11-8.42-14.56,5.97.79,8.5,8.9,8.42,14.56ZM119.99,115.96c-7.04-23.49-9.63-51.32,8.05-65.65,8.88-7.2,22.24-8.21,34.75-3.6,10.21,3.76,17.55,10.39,22.04,19.41.72,1.15,1.41-2.01.8,2.93-7.25,1.63-10.89,2.35-19.1,2.14.88,7.86,5.22,9.11,7.86,14.37-9.54,1.53-9.34,1.33-19.25.54-.65,9.14,3.4,7.22-.75,13.28-2.93,4.27-3.94,8.53-3.69,14.65,3.93,5.18,8.53,8.12,9.45,17.88-3.61-2.71-3.02-3.94-8.47-6.15,1.2,7.97-1.08,13.99-.52,17.85.84,5.74,4,5.17,3.18,15.6l-4.79-6.96c-8.3-11.19-35.77-5.36-42.37-34.65,8.57,4.58,19.46,17.35,37.6,16.84-10.14-6.04-19.43-9.15-24.79-18.46ZM345.61,105.99c-11.23-9.89-21.64-4.66-37.6-3.98,3.39-3.32,20.62-14.59,25.86-15.42,7.65-1.21,24.89,7.69,30.22,10.25-2.72-4.5-7.95-9.75-9.69-14.51,9.18-3.21,23.08-6.03,30.89,1.01l-8.15,12.97c5.52-2.65,21.27-11.4,29.22-9.47,5.69,1.38,21.22,9.17,24.92,14.76-7.59-.63-13.47-1.48-21.3-1.4-12.49.14-18.94,7.56-25.64,16.91l-8.26,13.16c.12-8.48,2.07-12.74,3.19-19.97-8.38,6.21-10.54,15.28-13.26,20.18-2.01,3.61-.19.88-1.83,2.45-2.56-5.87-4.3-9.67-7.93-14.78l-10.63-12.15ZM285.02,97.28c1.45-7.03,7.13-18.53,12.38-21.7l-.46,13.78-11.92,7.92ZM229.05,103.85c1.06-4.07,2.4-6.76,5.51-8.53,2.06-1.17,6.6-2.47,9.4-2.93-.93,8.07-5.9,11.48-14.91,11.46ZM478.45,108.01c-11.05.84-7.07,3.97-15.19-2.59-1.97-1.59-10.36-8.21-11.52-10.03,120.23,17.4,85.93,123.42,73.38,132.91-.45-5.77-1.15-11.59-2.15-17.11-2.33-12.77-3.39-9.6.81-12.49l-4.51-3.39,4.55-.93c-3.44-12.28-4.99-7.94.08-10.91-2.31-1.51-2.48-.79-5.11-2.98l.71-9.57,6.64-2.33c-6.78-4.75-8.15-.74-8.16-13.22l9.74-2.35c-2.38-1.18-5.25-2.46-8.06-3.79-7.8-3.68-5.13-11.27-15.77-19.94-13.61-11.08-13.17-2.1-20.74-15-1.63-2.77-2.91-4.15-4.68-6.27ZM569.22,106.08c-2.94-4.42-4.44-3.09-6.68-8.54,3.66,1.22,5.5,2.61,8.95,3.83,3.56,1.25,6.8,1.15,8.98,2.72-3,4.61-6.51,7.14-14.62,7.11,1.79-2.58,1.82-1.51,3.36-5.13ZM596.57,127.11c1.2,2.51,3.43,6.34,2.98,9.7-.56,4.23-.13,1.82-1.42,3.48-4-12.07-10.25-16.34-23.7-19.93-11.91-3.18-22.09-7.75-21.22-21.92,3.93,13.58,14.68,17.05,30.2,19.49,13.22,2.08,26.68,11.2,28.19,23.32l-1.09-1.28c-4.84-6.04-5.23-8.72-13.93-12.87ZM589.39,108.06c-1.75-4.23-2.07-.65-3.51-4.54,6.04-.11,9.47-2.22,14.27.93-.98,5.28-7.75,7.69-15.01,8.07l4.26-4.46ZM186.41,111.91c-2.96,2.24-2.6,2.61-7.62,2.01-1.95-2.26-2.4-2.37-2.58-6.61,5.56-1.39,8.46,1.55,10.19,4.6ZM292.64,118.64c6.08-2.21,11.8-5.45,20.13-5.4,3.87.02,7.43.7,10.81,1.87,5.5,1.9,5.78,2.36,7.41,5.01-24.73-1.31-20.44,3.53-31.26,6.69-2.63-2.81-4.95-3.56-7.09-8.16ZM408.19,119.86c6.6-7.13,20.08-8.08,30.33-4.7,4.55,1.5,6.14,2.27,8.23,5.15l-7.99,6.47c-3.97-1.55-6.95-4.32-12.74-5.93-6.45-1.8-11.34-.62-17.83-.99ZM257.88,135.46c.89-6.35,3.38-10.96,5.25-15.66,12.05.09,23.49,11.63,26.72,19.42l-10.88,6.29c-5.73-9.01-6.45-10.9-13.82-17.16-5.83,4.82-3.17,4.4-7.27,7.1ZM449.22,138.82c3.56-8.09,14.28-18.83,26.4-19.02,2.18,5.1,5.57,10.62,5.28,17.49-1.43-3.02-4.34-6.82-7.41-8.81-7.96,6.12-8.25,9.08-13.68,17.15-3.29-1.33-8.23-4.07-10.6-6.8ZM274.14,190.41c1.46-8.58,16.38-23.31,22.01-27.55,7.11-5.37,15.7-20.8,19.28-29.27,16.81,1.29,33.89,10.38,41.09,11.3l-3.68-9.59c5.74,5.63,12.4,11.21,15.98,20.74l2.83-3c2.82-4.01,6.98-13.64,13.94-16.4l-2.71,8.52c13.14-3.64,25.27-10.5,40.03-11.42,3.1,3.38,6.84,11.16,9.39,15.58,11.92,20.61,23.59,18.7,32.94,40.93-6.74,5.75-11.88,11.96-22.75,15.63-.79,9.11-6.65,30.57-12.44,34.13-1.04-17.04.89-24.43-6.25-33.64-11.88-15.31-12.12-12.15-17.24-17.49-1.91-1.99-.7-.33-1.73-2.43,7.25-6.32,20.54-9.61,32.38-9.81-1.75-3.6-15.81-16.28-20.76-17.42-3.49-.81-20.91,8.74-26.4,10.61l-1,6.72-7.14-3.37c4.37,13.59,32.79,25.26,35.62,41.54l-10.64,2.3c.17.15.41.37.61.52l7.99,5.04c4.69,3.39,6.12,2.88,4.93,9.56l-16.33-3c1.7,2.87,5,5.78,7.42,8.37,3.27,3.51,6.87,6.22,2.56,9.74-2.17.93-4.55-4.41-12.8-7.86,1.54,5.89,8.68,17,2.77,23.09-4.58-4.35-3.55-12.75-10.21-16.17-5.49-2.81-15.77-4.2-19.65-6.29-.49-15.52-1.45-17.6,8.15-24.69,7.55-5.58,5.81-4.23,15.41-1.86-1.83-8.26-5.74-14.77-10.55-18.2-5.45-3.88-11.84,5.01-17.77,4.68-6.88-.38-12.63-9.31-18.45-4.13-4.82,4.29-7.96,10.27-9.69,17.69,8.66-1.96,7.56-5.54,18.78,5.03,5.78,5.45,6.18,9.54,4.69,21.86-6.98,1.97-14.14,2.94-19.81,6.01-5.06,2.73-6.5,10.9-9.35,16.1-6.45-4.36-.73-14.5,2.19-22.83-6.7,1.9-8.08,6.16-12.93,8.07l-2.29-3.75c3.07-5.76,8.18-9.39,12.31-14.9-4.62.41-13.08,3.22-16.45,2.4-1.43-9.13,9.64-9.33,14.99-15.72l-11.76-.81c2.06-16.06,31.73-28.75,35.58-42.11l-7.88,3.76-.44-6.43c-28.15-15.75-26.07-11.73-37.76-3.19-3.4,2.49-7.04,5.63-9.44,9.6,12.79.45,23.93,3.1,32.56,9.87-3.61,4.91-10.58,8.93-19.16,20.2-5.19,6.82-4.52,4.13-5.1,14.49-.36,6.33-.54,12.87-1.12,19.14-.79-.76-.67-.59-1.53-1.73-5.89-7.8-9.84-22.83-10.8-32.12-9.54-5.36-15.97-8.34-22.45-16.01ZM238.37,272.92c-5.19-7.07-5.63-26.46-5.63-36.88,0-13.56,2.05-23.52,6.43-34.97,5.76-15.08,24.05-41.17,35.76-45.42-9.66,22.39-21.41,35.09-22.75,65.79,6.48-3.82,6.7-8.32,16.28-11.72-2.67,12.89-5.4,24.17-4.77,38.24.43,9.55,3.99,25.52,8.41,32.49,1.89-3.57,2.74-18.8,11.03-36.34,1.68-3.55,3.15-6.71,5.98-9.3,1.98,39.51,12.57,69.83,32.43,93.18-.37-12.89-5.37-20.29-4.08-47.8l2.04,2.74c.13.23.23.48.34.72l8.33,21.37c7.75,17.1,29.91,56.4,42.45,62.18,4.23-6.34,10.45-12.66,15.79-19.8,25.61-34.24,28.82-58.73,35.15-68.59,1.35,19.71-2.18,31.72-4.41,49.52,6.56-6.28,19.03-28.05,23.33-39.91,5.85-16.16,9.07-34.4,9.41-53.28,9.99,5.48,14.84,41.61,17.53,45.57,10.19-30.09,9.84-38.32,3.22-70.63,3.95.96,5.94,2.49,8.99,4.92l7.16,6.32c-.17-18.28-7.08-35.61-15.04-50.99-2.21-4.27-6.14-10.51-7.42-14.66,12.17,4.49,30.64,31.69,36.35,47.32,5.33,14.6,9.35,58.49-.27,70.54l-7.43-21.01c-4.53,18.94-13.4,41.54-21.7,57.74-4.67,9.12-24.75,45.47-30.21,47.79l-.02-19.91-2.78,2.59c-1.53,1.56-1.11,1.13-2.31,2.65l-29.63,33.86c-5.47,6.09-31.79,34.01-37.02,36.12l-71.36-75.13-.1,19.84c-10.59-6.78-35.35-57.76-42.56-76.47-2.6-6.76-6.78-25.13-9.99-29.52-2.93,6.66-3.29,15.35-6.94,20.86ZM195.71,166.62c-4.97-1.12-8.03-6.28-7.52-13.49l10.45,6.89-2.93,6.6ZM184.44,183.24c-2.92-3.23-13.37-13.81-13.52-20.58-.13-6.13,6.51-19.23,12.34-22.31-.62,13.65-1.03,24.5,7.46,31.23,6.94,5.49,16.73,9.72,28.97,10.26l-4.32,11.55c.23.16.61.23.78.31,6.07,3.08,2.46-1.01,3.21,2.67-10.14,4.36-29.19-4.53-37.29-3.97-1.34,7.17-.43,9.96-.25,16.89-6.94-6.84-14.32-27.07-14.07-39.89l3.83,4.5c1.32,1.76,2.34,2.72,3.83,4.07,2.7,2.46,5.13,4.3,9.03,5.27ZM199.21,171.79c.59-6.82,1.87-8.58,8.34-8.89,5.41-.26,9.59.58,14.29,1.46-2.36,10.3-12.1,8.85-22.63,7.44ZM320.95,171.56c9.06-7.4,17.52.35,18.49,1.98-6.3,3.6-14.62,2.73-18.49-1.98ZM400.56,174.03c1.45-2.33,1.05-2.05,4.44-3.61,6.56-3.03,7.88-4.01,14.28,1.14-1.92,2.16-5.67,3.68-8.37,4.11-4,.63-7.21-.81-10.35-1.64ZM343.8,277.36c1.38-4.75,5.78-13.88,8.41-18.72,1.76-3.24,3.49-6.35,6.14-7.78,2.35-1.27,7.89-2.37,10.97-2.41,10.44-.13,13.84,3.34,17.74,10.58,1.95,3.62,7.32,14.42,8.08,18.43-3.12-1.18-3.57-2.37-6.96-3.68l-17.5,21.01c-8.27-3.27-16.68-18.27-20.2-21.14-2.49,1.39-4.13,2.6-6.68,3.71Z"/>
      <path class="cls-6" d="M1,613.86v48.32c0,2.02.61,2.64,2.64,2.64h699.36v-53.59H3.64c-2.02,0-2.64.61-2.64,2.64"/>
      <path class="cls-4" d="M200.67,43.58c-17.76-4.14-10.48-4.15-21.79-9.95-11.4-5.85-21.73-5.92-34.75-5.92-36.68,0-46.63,26.53-46.63,59.53-15.14-10.14-16.41-15.56-19.84-17.86,0,33.87,16.43,72.99,40.26,88.71,14.91,9.84,19.53-1.89,23.82,27.77,1.26,8.73,1.4,14.66,1.4,24.4,3.76-1,6.9-4.92,9.92-6.94,1.37,2.59,2.53,5.37,4,7.9,9.63,16.64,32.62,35.24,47.59,38.72,0,34.63,16.74,69.13,37.89,94.05,1.74,2.05,1.83,3.38,4.77,4.16,0-5.8.99-6.93.99-11.9l4.39,6.52c1.53,2.54,2.74,4.2,4.33,6.58,16.89,25.23,50.01,65.99,75.61,83.13v-10.91l36.71,30.75c2.75-.73,5.83-3.83,9.15-6.72l13.43-11.37c1.75-1.63,2.63-2.87,4.5-4.43l9.63-7.24v8.93c4.1-.34,4.17-1.55,6.71-4.2,2.01-2.09,3.38-3.42,5.44-5.47l22.32-22.32c4.23-4.19,6.63-7.69,10.92-11.9,15.58-15.31,30.67-40.85,38.93-50.36.34,4.07.99,5.4.99,10.91,3.53-.94,2.07-.41,4.04-2.9.8-1.01,2.04-2.88,2.9-4.04,17.93-24,30.32-47.98,35.17-78.92,1.58-10.08-.2-11.44,4.16-16.68l8.96-12.86c12.16-22.82,15.88-43.52,12.07-69.96-.58-4.01-1.83-7.29-1.83-12.06,8.92,0,17.24,3.59,27.78-1.98,3.78,7.87,3.72,21.01,0,28.77,6.87-.57,15.14-13.05,20.83-16.87,2.37,4.95,2.98,11.41,2.98,18.85,9.49-6.36,29.33-35.68,11.5-59.12-1.87-2.46-2.95-2.96-4.56-5.36,4.77-7.13,6.94-6.02,6.94-17.86,0-6.23-1.33-7.74-2.99-11.89-2.82-7.03,3.42-21.22-11.86-32.79-10.72-8.12-14.45-6.01-20.49-9.27l-17.82-12.93c-52.48-34.36-162.22-40.95-178.03,17.24-.31,1.13-1.2,8.07-1.4,8.43-1.16,2.09,1.16,1.68-7.15.27-6.21-1.05-20.79-1.3-26.14,1.27-7.32-15.26-11.61-31.45-31.33-45.06-33.41-23.08-83.16-6.62-95.27,9.74-1.34,1.81-1.88,3.36-2.97,4.97-4.1,6.08-5.74.31-17.27,8.52-3.29,2.34-6.65,4.57-8.92,7.95M599.19,116.42c17.94,7.86,22.06,28.91,14.18,38.02-2.48-4.01-3.59-8.28-7.94-10.91-3.76,6.32-2.37,7.44-8.93,11.4l-1.1-2.26c-1.51-4.5-2.4-16.51-10.8-20.81-4.51,5.39-4.56,11.87-16.51,10.51-11.16-1.27-11.14-3.96-24.91-2.08-.21,6.29,9.66,23.07,6.09,53.35-4.58,38.85-22.8,44.26-23.8,52.36-.6,4.82-.64,10.11-1.35,14.92-4.32,29.53-12.74,42.38-27.52,64.63-3.67-3.65-1.88-7.29-4.27-11.78l-17.17,27.12c-12.34,18.43-24.22,34.28-39.39,49.92-3.62,3.73-19.83,20.06-23.77,21.73l-.13-9.87c-3.55,1.71-31.81,32.01-42.56,35.99-6.72-4.07-16.18-11.75-21.84-17.09l-20.4-18.74.02,9.48c-9.04-4.23-37.34-36.4-44.83-45.56-10.16-12.43-34.47-51.96-35.89-53.34l-2.66,12.18c-15.7-11.8-28.88-52.09-30.12-77.6-.63-12.92,1.63-23.15,1.67-34.39l-21.98-3.36c1.49,15.78,6.71,20.75,8.51,27.51-35.7-16.02-39.19-34.54-44.49-65.63.08,3.77-3.62,12.79-5.44,16.05-3.08-5.63-2.15-18.95-8.44-28.85-4.43-6.98-12.4-3.14-25.54-13.15-10.56-8.04-23.92-32.76-26.77-51.11l17.87,13.43c.78-8.01-10.11-56.61,20.53-68.59,11.66-4.56,29.44-2.93,40.93,1.09,7.99,2.79,10.87,7.11,14.98,8.75,3.4,1.35,5.79,1.29,9.08,2.94,2.74,1.37,5.12,3.22,6.92,4.4,4.48-5.25,9.29-9.87,16.41-14.19,4.92-2.98,6.2-2.61,11.56-4.32,8.79-2.81,9.13-23.65,51.61-26.48,39.55-2.63,58.93,21.78,67.88,57.01,8.83-.62,13.28-4.4,25.19-3.31,10.48.96,16.19,4.76,24.39,6.89-.3-32.38,15.23-48.16,41.95-55.21,37.82-9.98,86.87.21,119.7,18.81,14.5,8.22,12.39,8.75,20.5,15.19,5.01,3.99,13.91,1.32,23.89,12.86,5.12,5.92,4.41,10.49,4.22,19.21-.16,7.3,12.52,12.56-5.9,28.8l-3.66,4.06Z"/>
      <path class="cls-7" d="M238.37,272.92c3.65-5.51,4.02-14.2,6.94-20.86,3.21,4.39,7.38,22.77,9.99,29.52,7.22,18.71,31.97,69.69,42.56,76.47l.1-19.84,71.36,75.13c5.23-2.11,31.55-30.03,37.02-36.12l29.63-33.86c1.2-1.52.78-1.09,2.31-2.65l2.78-2.59.02,19.91c5.46-2.32,25.54-38.68,30.21-47.79,8.3-16.2,17.17-38.8,21.7-57.74l7.43,21.01c9.61-12.05,5.6-55.94.27-70.54-5.71-15.64-24.18-42.83-36.35-47.32,1.28,4.15,5.21,10.39,7.42,14.66,7.96,15.38,14.87,32.72,15.04,50.99l-7.16-6.32c-3.06-2.43-5.04-3.95-8.99-4.92,6.62,32.31,6.97,40.54-3.22,70.63-2.7-3.96-7.54-40.09-17.53-45.57-.34,18.88-3.56,37.11-9.41,53.28-4.29,11.86-16.77,33.63-23.33,39.91,2.23-17.8,5.76-29.81,4.41-49.52-6.33,9.87-9.54,34.35-35.15,68.59-5.34,7.14-11.56,13.46-15.79,19.8-12.54-5.77-34.7-45.08-42.45-62.18l-8.33-21.37c-.11-.24-.22-.49-.34-.72l-2.04-2.74c-1.29,27.51,3.71,34.91,4.08,47.8-19.86-23.35-30.45-53.66-32.43-93.18-2.83,2.59-4.3,5.75-5.98,9.3-8.29,17.54-9.14,32.77-11.03,36.34-4.42-6.97-7.98-22.93-8.41-32.49-.63-14.08,2.09-25.36,4.77-38.24-9.58,3.4-9.8,7.91-16.28,11.72,1.34-30.7,13.09-43.4,22.75-65.79-11.71,4.25-30,30.34-35.76,45.42-4.38,11.45-6.42,21.4-6.43,34.97,0,10.42.44,29.81,5.63,36.88"/>
      <path class="cls-5" d="M274.14,190.41c6.48,7.67,12.91,10.65,22.45,16.01.96,9.29,4.9,24.32,10.8,32.12.86,1.14.75.97,1.53,1.73.58-6.27.76-12.81,1.12-19.14.58-10.36-.09-7.67,5.1-14.49,8.58-11.27,15.55-15.3,19.16-20.2-8.63-6.77-19.77-9.42-32.56-9.87,2.4-3.96,6.03-7.11,9.44-9.6,11.69-8.54,9.61-12.55,37.76,3.19l.44,6.43,7.88-3.76c-3.85,13.36-33.52,26.05-35.58,42.11l11.76.81c-5.34,6.39-16.42,6.58-14.99,15.72,3.37.82,11.83-1.98,16.45-2.4-4.13,5.51-9.24,9.14-12.31,14.9l2.29,3.75c4.84-1.91,6.22-6.17,12.93-8.07-2.92,8.33-8.64,18.47-2.19,22.83,2.85-5.2,4.29-13.37,9.35-16.1,5.68-3.06,12.84-4.03,19.81-6.01,1.49-12.32,1.09-16.41-4.69-21.86-11.22-10.56-10.12-6.99-18.78-5.03,1.72-7.42,4.87-13.4,9.69-17.69,5.82-5.17,11.57,3.75,18.45,4.13,5.93.33,12.32-8.56,17.77-4.68,4.81,3.43,8.73,9.95,10.55,18.2-9.6-2.37-7.86-3.72-15.41,1.86-9.6,7.09-8.64,9.17-8.15,24.69,3.88,2.09,14.16,3.48,19.65,6.29,6.66,3.41,5.63,11.81,10.21,16.17,5.91-6.09-1.23-17.19-2.77-23.09,8.26,3.45,10.64,8.79,12.8,7.86,4.31-3.53.71-6.23-2.56-9.74-2.42-2.6-5.73-5.5-7.42-8.37l16.33,3c1.19-6.68-.24-6.17-4.93-9.56l-7.99-5.04c-.19-.15-.44-.38-.61-.52l10.64-2.3c-2.83-16.28-31.25-27.94-35.62-41.54l7.14,3.37,1-6.72c5.49-1.87,22.91-11.42,26.4-10.61,4.95,1.14,19.01,13.83,20.76,17.42-11.84.19-25.13,3.49-32.38,9.81,1.02,2.11-.18.44,1.73,2.43,5.12,5.35,5.36,2.18,17.24,17.49,7.14,9.2,5.21,16.6,6.25,33.64,5.79-3.56,11.65-25.01,12.44-34.13,10.87-3.67,16.02-9.89,22.75-15.63-9.36-22.23-21.02-20.31-32.94-40.93-2.56-4.42-6.29-12.2-9.39-15.58-14.76.92-26.89,7.78-40.03,11.42l2.71-8.52c-6.95,2.76-11.12,12.39-13.94,16.4l-2.83,3c-3.58-9.52-10.25-15.11-15.98-20.74l3.68,9.59c-7.2-.92-24.28-10.01-41.09-11.3-3.58,8.48-12.16,23.9-19.28,29.27-5.62,4.24-20.54,18.97-22.01,27.55"/>
      <path class="cls-5" d="M412.35,63.1l8.04-1.94-3.56,8.28c12.05,8.18,3.81,6.2,17.66,2.23l-3.53,7.98c3.42.74,8.61,3.34,10.89,3.42,3.61.12,6.28-3.05,10.46-3.56l-1.62,6.49c15.92,4.75,8.64,2.72,21.21-1.16l-1.68,6.03c20.09,4.32,7.94,2.63,20.14-.61l-1.78,6.34c11.13,2.83,7.81,6.82,19.47,3.02l-1.27,5.46c5.45,1.7,14.88,8.5,18.65,12.52,1.07,1.14,1.27,1.65,2.2,2.69l4.08,3.27c-3.72-42.94-57.85-50.97-83.63-59.63-13.69-4.6-24.35-8.27-20.38-23.66.19.24.37.35.44.81l2.21,5.83c2.38.47,5.29-2.84,7.48-4.26,2.72-1.77,5.37-3.03,8.61-4.28,24.42-9.37,54.13-2.54,76.91,6.98,5.5,2.3,5.38.39,11.65.24,7.7-.18,16.11,1.79,21.73,5.01,14.61,8.36,11.87,19.78,15.9,37.45-5.29-2.17-2.7-3.35-6.46-6.22-1.68-1.28-6.34-2.64-8.8-4.08-5.57-3.25-9.07-7.56-8.99-17.3l1.73-.77c.21-.07.59-.23.84-.3l3.57-.62c-16.64-11.82-41.68-6.7-40.36,5.51,1.12,10.35,25.98,16.32,26.9,33.03-4.55-4.44-3.7-6.92-10.85-9.82,2.87,5.7,13.98,18.74,14.43,29.88.27,6.78-3.61,3.2-6.59,1.59,2.75,9.02,9.35,11.94,20.07,14.71,11.28,2.91,22.32,4.57,19.46-9.89-7.1,3.65-4.98,2.79-15.8-.17l-1.98-5.92c-.22.14-.55.13-.65.46l-1.93,1.24c-1.44.77-1.39.79-3.2,1.2-5.79-11.99-3.28-31.65-16.92-45.37-3.1-3.12-9.44-5.81-12-8.86,18.93-6.56,4.26,8.78,36.51,27.02,14.06,7.95,18.84,8.06,31.25,6.9,6.8-.63,5.72,1.68,10.81,2.95,4.58-10.81,3.31-8.69-1.5-16.98-.03-.17,6.15-21.01-16.79-25.88,2.49,4.67,6.78,7.43,7.93,13.87-3.17-2.71-4.85-6.08-7.6-8.93-9.09-9.43-17.38-16.74-29.98-23.62-82.75-45.17-159.88-11.69-143.39,21.42M580.24,87.62c-2.38-2.91-2.76-4.75-2.31-9.91,3.75,3.79,7.53,9.16,7.27,17.15-2.07-3.58-2.29-3.98-4.96-7.25Z"/>
      <path class="cls-5" d="M201.66,70.44c-4.13-3.91-6.47-9.56-14.42-9.57l6.6,13.05c-6.49,2.29-12.09,2.24-18.84,2.18,3.09,4.66,5.82,4.16,10.28,7.83-6.58,6.19-12.75,8.29-24.9,8.02,1.75,6.86,6.81,8.76,14.5,10.53,4.13-2.69,1.51-4.87,7.9.66,3.07,2.66,6.28,5.44,7.92,7.9-1.67,4.02-4.18,5.28-7.28,7.94l1.96,9.89c3.6-2.73,1.77-2.93,5.56-4.84-1.4,8.47-2.11,12.73-1.5,21.84,16.22.75,27.98-17.88,22.54,1.36l-6.09-.59c5.51,6.66-2.6,3.86-2.63,13.44,7.17-.45,13.46-.95,19.26,1.33-.12-6.7-1.88-9.25,2.93-12.74l-3.54-1.48c7.46-5.94,5.38-6.37,8.73-9.61.88,3.11,2.38,8.7,3.76,11.32,5.39-2.45,7.52-7.96,9.17-15.84l4.99,3.63c.65-4.99,1.61-9.36,3.01-13.52,1.36-4.03,4.13-7.49,4.9-11.15-2.82-5.28-5.6-7.71-12.14-10.23-1.3,2.35-.43,2.46-.46,5.73-7.35.7-14.79.73-21.96-.79,8.64-29.23,41.84-14.87,47.13-35.89-4.52,1.5-4.69,2.43-10.18,3l1.36-7.98c-4.98,1.19-7.7,3.47-13.99,4-26.91,2.27-22.27,10.22-29.56,23.43l-2.32,3.12c.6-4.42,2.64-15.35,4.05-19.29,1.81-5.07,2.34-2.55,3.16-8.75.53-3.97,1.05-6.26,1.75-9.76l-9.65,6.44,1.47-9.19-13.47,14.56Z"/>
      <path class="cls-7" d="M119.99,115.96c5.36,9.31,14.65,12.43,24.79,18.46-18.14.51-29.03-12.26-37.6-16.84,6.6,29.29,34.07,23.47,42.37,34.65l4.79,6.96c.82-10.43-2.34-9.86-3.18-15.6-.57-3.85,1.72-9.88.52-17.85,5.45,2.22,4.86,3.44,8.47,6.15-.91-9.76-5.51-12.7-9.45-17.88-.26-6.13.76-10.38,3.69-14.65,4.15-6.06.1-4.13.75-13.28,9.91.79,9.71.99,19.25-.54-2.64-5.26-6.98-6.51-7.86-14.37,8.22.22,11.85-.5,19.1-2.14.61-4.94-.07-1.77-.8-2.93-3.25,3.21-1.68-1.16-14.9-2.81-7.54-.94-11.66.49-18.85.92l-2.43-8.31-1.55,10.25c-10.67,4.22-9.37,8.73-15.87,14.14-4.56-.42-5.85-1.98-9.2-4.21,3.41,12.48,6.06,4.31,2.73,19.69l-2.66,15.88c-.27,1.33-.11,1.01-.68,2.31-1.04,2.38.41.31-1.43,1.98"/>
      <path class="cls-7" d="M354.39,82.34c1.74,4.76,6.98,10.01,9.69,14.51-5.33-2.57-22.57-11.46-30.22-10.25-5.24.83-22.47,12.1-25.86,15.42,15.95-.68,26.37-5.92,37.6,3.98l10.63,12.15c3.63,5.11,5.37,8.91,7.93,14.78,1.63-1.57-.18,1.16,1.83-2.45,2.73-4.9,4.88-13.97,13.26-20.18-1.11,7.23-3.06,11.49-3.19,19.97l8.26-13.16c6.7-9.35,13.16-16.77,25.64-16.91,7.82-.08,13.7.76,21.3,1.4-3.7-5.59-19.23-13.38-24.92-14.76-7.95-1.93-23.71,6.82-29.22,9.47l8.15-12.97c-7.82-7.04-21.71-4.22-30.89-1.01"/>
      <path class="cls-7" d="M232.41,59.35c-2.88,2.53-1.53.03-2.64,4.88,18.6-4.32,14.31,5.43,32.46-7.63l3.96,8.44,7.27-2.2c-.75,7.86-.45,13.41,4.59,17.02,2-1.17,4.9-5.53,6.87-7.58,2.53-2.62,5.11-5.21,8.38-7.49,5.35-3.73,13.38-9.24,21.13-10.07-4.93,10.03-8.39,14.88-9.26,28.97,8.19-2.36,7-3.57,21.54-7.23l3.23-1.11c.18-.07.5-.21.72-.37-5.11-.26-1.63.06-3.45-1.14,5.07.45,5.31-.1,8.03-2.71-2.44-1.45-4.9-.4-7.35-2.11-4.12-2.86-.2-6.76-10.24-16.41-4.43-4.26-14.91-10.55-23.39-12.65.85-5.82.38-7.68-1.63-11.99-3.9,9.34-2.66,8.41-14.14,9.53-18.93,1.84-36.68,9.21-46.71,24.65l.64-2.81Z"/>
      <path class="cls-5" d="M478.45,108.01c1.77,2.12,3.05,3.5,4.68,6.27,7.57,12.9,7.13,3.92,20.74,15,10.65,8.67,7.97,16.26,15.77,19.94,2.82,1.33,5.69,2.61,8.06,3.79l-9.74,2.35c.02,12.49,1.39,8.47,8.16,13.22l-6.64,2.33-.71,9.57c2.63,2.19,2.8,1.47,5.11,2.98-5.07,2.97-3.52-1.37-.08,10.91l-4.55.93,4.51,3.39c-4.2,2.89-3.14-.28-.81,12.49,1.01,5.52,1.7,11.34,2.15,17.11,12.55-9.49,46.85-115.51-73.38-132.91,1.16,1.83,9.56,8.45,11.52,10.03,8.13,6.56,4.14,3.43,15.19,2.59"/>
      <path class="cls-5" d="M232.41,59.35l-.64,2.81c10.03-15.44,27.77-22.81,46.71-24.65,11.49-1.12,10.24-.19,14.14-9.53,2.01,4.31,2.47,6.17,1.63,11.99,8.49,2.1,18.96,8.39,23.39,12.65,10.04,9.65,6.12,13.55,10.24,16.41,2.45,1.7,4.91.65,7.35,2.11-2.72,2.61-2.96,3.16-8.03,2.71,1.82,1.2-1.66.88,3.45,1.14,12.97,1.69,9.62-4.67,6.79-13.37-2.29-7.03-4.59-12.11-8.6-18.21-22.76-34.68-69.63-28.28-88.5-1.78-2.19,3.08-8.85,13.84-7.94,17.72"/>
      <path class="cls-5" d="M119.99,115.96c1.84-1.67.39.4,1.43-1.98.57-1.3.41-.98.68-2.31l2.66-15.88c3.32-15.38.68-7.2-2.73-19.69,3.35,2.24,4.64,3.79,9.2,4.21,6.5-5.4,5.2-9.91,15.87-14.14l1.55-10.25,2.43,8.31c7.2-.43,11.31-1.86,18.85-.92,13.22,1.64,11.65,6.02,14.9,2.81-4.5-9.02-11.83-15.65-22.04-19.41-12.51-4.61-25.87-3.59-34.75,3.6-17.68,14.33-15.09,42.16-8.05,65.65"/>
      <path class="cls-5" d="M343.8,277.36c2.55-1.11,4.19-2.32,6.68-3.71,3.52,2.87,11.93,17.87,20.2,21.14l17.5-21.01c3.4,1.3,3.84,2.5,6.96,3.68-.76-4.01-6.14-14.81-8.08-18.43-3.89-7.24-7.3-10.71-17.74-10.58-3.08.04-8.62,1.15-10.97,2.41-2.65,1.43-4.38,4.54-6.14,7.78-2.63,4.85-7.03,13.98-8.41,18.72"/>
      <path class="cls-7" d="M184.44,183.24c-3.91-.98-6.33-2.81-9.03-5.27-1.48-1.35-2.51-2.3-3.83-4.07l-3.83-4.5c-.25,12.82,7.13,33.05,14.07,39.89-.18-6.93-1.09-9.72.25-16.89,8.11-.56,27.15,8.33,37.29,3.97-.75-3.68,2.86.42-3.21-2.67-.17-.08-.55-.15-.78-.31l4.32-11.55c-12.24-.54-22.03-4.77-28.97-10.26-8.49-6.72-8.09-17.58-7.46-31.23-5.83,3.08-12.47,16.18-12.34,22.31.14,6.77,10.59,17.35,13.52,20.58"/>
      <path class="cls-7" d="M469.75,53.45l-10.6.72,1.55-7.79c-3.6,1.59-5.03,3.37-7.11,6.08-3.7,4.83-2.55,2.75-7.6,5.16,7.32,7.35,26.55.41,47.11,4.92,5.44,1.19,9.18,3.66,13.66,4.62-1.67-4.23-6.55-7.81-11.2-9.84,1.02-6.55,2.27-5.08,5.26-10.15-7.96,1.22-9.43,4.16-13.45,7.73l-9.51-1.6c.41-5.98,2.64-6.64,4.45-10.56-6.17,1.8-9.82,6.1-12.57,10.71"/>
      <path class="cls-5" d="M449.22,138.82c2.37,2.73,7.31,5.47,10.6,6.8,5.43-8.07,5.72-11.03,13.68-17.15,3.07,1.99,5.98,5.79,7.41,8.81.28-6.86-3.1-12.39-5.28-17.49-12.12.19-22.84,10.93-26.4,19.02"/>
      <path class="cls-5" d="M257.88,135.46c4.11-2.7,1.45-2.28,7.27-7.1,7.37,6.26,8.09,8.14,13.82,17.16l10.88-6.29c-3.24-7.79-14.67-19.33-26.72-19.42-1.87,4.69-4.35,9.3-5.25,15.66"/>
      <path class="cls-8" d="M598.12,140.3c1.29-1.66.86.75,1.42-3.48.45-3.36-1.78-7.19-2.98-9.7,8.69,4.15,9.08,6.84,13.93,12.87l1.09,1.28c-1.51-12.13-14.97-21.24-28.19-23.32-15.51-2.44-26.27-5.91-30.2-19.49-.87,14.17,9.32,18.74,21.22,21.92,13.45,3.59,19.71,7.86,23.7,19.93"/>
      <path class="cls-7" d="M292.64,118.64c2.14,4.6,4.46,5.35,7.09,8.16,10.81-3.15,6.52-7.99,31.26-6.69-1.62-2.65-1.91-3.11-7.41-5.01-3.38-1.17-6.94-1.85-10.81-1.87-8.32-.05-14.05,3.19-20.13,5.4"/>
      <path class="cls-7" d="M408.19,119.86c6.49.36,11.38-.81,17.83.99,5.79,1.61,8.77,4.38,12.74,5.93l7.99-6.47c-2.09-2.89-3.68-3.65-8.23-5.15-10.26-3.38-23.73-2.43-30.33,4.7"/>
      <path class="cls-5" d="M199.21,171.79c10.52,1.41,20.27,2.86,22.63-7.44-4.69-.88-8.88-1.72-14.29-1.46-6.47.31-7.75,2.07-8.34,8.89"/>
      <path class="cls-7" d="M285.02,97.28l11.92-7.92.46-13.78c-5.25,3.17-10.93,14.67-12.38,21.7"/>
      <path class="cls-4" d="M569.22,106.08c-1.55,3.62-1.57,2.54-3.36,5.13,8.11.03,11.62-2.5,14.62-7.11-2.18-1.58-5.43-1.47-8.98-2.72-3.45-1.22-5.29-2.6-8.95-3.83,2.24,5.45,3.74,4.12,6.68,8.54"/>
      <path class="cls-8" d="M229.05,103.85c9,.02,13.98-3.39,14.91-11.46-2.8.46-7.34,1.75-9.4,2.93-3.11,1.77-4.45,4.47-5.51,8.53"/>
      <path class="cls-8" d="M400.56,174.03c3.14.82,6.34,2.26,10.35,1.64,2.71-.42,6.45-1.95,8.37-4.11-6.4-5.14-7.72-4.17-14.28-1.14-3.39,1.56-2.99,1.28-4.44,3.61"/>
      <path class="cls-8" d="M320.95,171.56c3.87,4.71,12.18,5.58,18.49,1.98-.97-1.64-9.43-9.38-18.49-1.98"/>
      <path class="cls-4" d="M589.39,108.06l-4.26,4.46c7.27-.38,14.03-2.79,15.01-8.07-4.8-3.15-8.23-1.04-14.27-.93,1.44,3.89,1.76.31,3.51,4.54"/>
      <path class="cls-5" d="M195.71,166.62l2.93-6.6-10.45-6.89c-.51,7.21,2.55,12.37,7.52,13.49"/>
      <path class="cls-8" d="M565.45,77.02c.08-5.66-2.44-13.77-8.42-14.56-.95,8.45,3.1,12.38,8.42,14.56"/>
      <path class="cls-8" d="M178.79,113.92c5.02.6,4.66.23,7.62-2.01-1.73-3.05-4.63-5.99-10.19-4.6.18,4.24.63,4.35,2.58,6.61"/>
      <path class="cls-9" d="M585.21,94.87c.26-7.99-3.53-13.36-7.27-17.15-.45,5.15-.07,6.99,2.31,9.91,2.67,3.27,2.89,3.66,4.96,7.25"/>
      <text class="cls-10" transform="translate(234.57 655.76) scale(1.12 1)"><tspan x="0" y="0">A</tspan></text>
      <text class="cls-3" transform="translate(209.78 655.76)"><tspan x="0" y="0">A</tspan></text>
      <text class="cls-10" transform="translate(304.61 655.76) scale(1.12 1)"><tspan x="0" y="0">M</tspan></text>
      <text class="cls-3" transform="translate(272.38 655.76)"><tspan x="0" y="0">M</tspan></text>
      <text class="cls-10" transform="translate(384.06 655.76) scale(1.12 1)"><tspan x="0" y="0">I</tspan></text>
      <text class="cls-3" transform="translate(343.4 655.76)"><tspan x="0" y="0">I</tspan></text>
      <text class="cls-10" transform="translate(432 655.76) scale(1.12 1)"><tspan x="0" y="0">N</tspan></text>
      <text class="cls-3" transform="translate(386.24 655.76)"><tspan x="0" y="0">N</tspan></text>
      <path class="cls-4" d="M506.81,638.22c-.05,15.46,19.39,22.26,31.53,13.09l.04-13.1h-4.61s-.17,10.61-.17,10.61c-24.95,9.27-28.02-22.35-9.53-24,6.93-.62,9.87,2.39,11.42,3.1,1-.89,1.64-1.43,2.97-3.14-12.26-9.35-31.6-2.99-31.66,13.44Z"/>
      <path class="cls-2" d="M506.81,638.22c-.05,15.46,19.39,22.26,31.53,13.09l.04-13.1h-4.61s-.17,10.61-.17,10.61c-24.95,9.27-28.02-22.35-9.53-24,6.93-.62,9.87,2.39,11.42,3.1,1-.89,1.64-1.43,2.97-3.14-12.26-9.35-31.6-2.99-31.66,13.44Z"/>
      <path class="cls-4" d="M167.3,638.22c-.05,15.46,19.39,22.26,31.53,13.09l.04-13.1h-4.61s-.17,10.61-.17,10.61c-24.95,9.27-28.02-22.35-9.53-24,6.93-.62,9.87,2.39,11.42,3.1,1-.89,1.64-1.43,2.97-3.14-12.26-9.35-31.6-2.99-31.66,13.44Z"/>
      <path class="cls-2" d="M167.3,638.22c-.05,15.46,19.39,22.26,31.53,13.09l.04-13.1h-4.61s-.17,10.61-.17,10.61c-24.95,9.27-28.02-22.35-9.53-24,6.93-.62,9.87,2.39,11.42,3.1,1-.89,1.64-1.43,2.97-3.14-12.26-9.35-31.6-2.99-31.66,13.44Z"/>
      <path d="M655.65,528.91l-15.29-44.4-15.29,44.4h30.59ZM662.68,549.28h-44.78l-8.54,24.85h-22.87l42.99-115.96h22.04l43.12,115.96h-23.42l-8.54-24.85ZM558.94,500.25c0-6.52-1.74-11.51-5.24-14.99-3.49-3.48-8.59-5.22-15.29-5.22h-18.19v40.42h18.19c6.71,0,11.8-1.77,15.29-5.3,3.49-3.53,5.24-8.5,5.24-14.91ZM559.35,574.13l-18.6-32.3h-20.53v32.3h-22.32v-115.96h41.75c8.54,0,15.96,1.71,22.25,5.14,6.29,3.42,11.14,8.28,14.54,14.58,3.4,6.3,5.1,13.75,5.1,22.36s-1.72,16.04-5.17,22.28c-3.44,6.24-8.34,11.02-14.67,14.33l21.63,37.27h-23.97ZM480.13,552.6v21.54h-74.67v-115.96h72.88v21.54h-50.7v25.18h44.78v20.87h-44.78v26.84h52.49ZM361.64,574.13l-.14-69.58-28.38,57.32h-10.06l-28.24-55.83v68.09h-20.94v-115.96h18.46l36.1,72.06,35.55-72.06h18.32l.28,115.96h-20.94ZM228.69,458.17h22.32v115.96h-22.32v-115.96ZM205.82,458.17v115.96h-22.32v-47.54h-43.81v47.54h-22.32v-115.96h22.32v45.72h43.81v-45.72h22.32ZM62.53,576.12c-9.83,0-18.71-2.57-26.66-7.7-7.95-5.14-14.19-12.26-18.74-21.37-4.55-9.11-6.82-19.41-6.82-30.9s2.27-21.78,6.82-30.89c4.55-9.11,10.79-16.23,18.74-21.37,7.94-5.14,16.88-7.7,26.8-7.7,8.36,0,15.91,1.77,22.66,5.3,6.75,3.53,12.42,8.61,17.02,15.24l-14.33,15.9c-6.52-9.06-14.6-13.58-24.25-13.58-5.97,0-11.3,1.57-15.98,4.72-4.68,3.15-8.34,7.54-10.95,13.17-2.62,5.63-3.93,12.04-3.93,19.22s1.31,13.58,3.93,19.22c2.62,5.63,6.27,10.02,10.95,13.17,4.68,3.15,10.01,4.72,15.98,4.72,9.64,0,17.73-4.58,24.25-13.75l14.33,15.9c-4.59,6.74-10.29,11.87-17.08,15.41-6.8,3.53-14.37,5.3-22.73,5.3Z"/>
    </g>
  </g>
</svg>