<?xml version="1.0" encoding="UTF-8"?>
<svg width="320px" height="118px" viewBox="0 0 320 118" version="1.1" xmlns="http://www.w3.org/2000/svg" xmlns:xlink="http://www.w3.org/1999/xlink">
    <!-- Generator: sketchtool 61 (101010) - https://sketch.com -->
    <title>B3FCD76F-00CF-4FE4-98E6-78CA10361773</title>
    <desc>Created with sketchtool.</desc>
    <defs>
        <polygon id="path-1" points="0.04075 0.0005 76.29075 0.0005 76.29075 117.24025 0.04075 117.24025"></polygon>
        <polygon id="path-3" points="0 9.2985 76.25 9.2985 76.25 66.44475 0 66.44475"></polygon>
    </defs>
    <g id="Homepage" stroke="none" stroke-width="1" fill="none" fill-rule="evenodd">
        <g id="New-Design-RETAIL" transform="translate(-400.000000, -89.000000)">
            <g id="HEADER">
                <g id="Logo/Normal/Hor256-Logo/Normal/Hor320" transform="translate(400.000000, 89.000000)">
                    <g id="Logo/Normal/Hor256">
                        <path d="M265.21475,81.977875 L267.69725,82.971625 L304.0185,82.971625 L304.0185,87.004125 C303.71975,87.230375 303.52225,87.586625 303.52225,87.992875 C303.52225,88.676625 304.0785,89.234125 304.76475,89.234125 C305.44975,89.234125 306.006,88.676625 306.006,87.992875 C306.006,87.586625 305.8085,87.230375 305.5085,87.004125 L305.5085,82.971625 L315.03975,82.971625 C315.3535,83.420375 315.87225,83.716625 316.4635,83.716625 C317.4235,83.716625 318.201,82.937875 318.201,81.977875 C318.201,81.017875 317.4235,80.239125 316.4635,80.239125 C315.87225,80.239125 315.3535,80.535375 315.03975,80.984125 L305.5085,80.984125 L305.5085,76.734125 C305.8085,76.506625 306.006,76.150375 306.006,75.746625 C306.006,75.060375 305.44975,74.504125 304.76475,74.504125 C304.0785,74.504125 303.52225,75.060375 303.52225,75.746625 C303.52225,76.150375 303.71975,76.506625 304.0185,76.734125 L304.0185,80.984125 L267.69725,80.984125 L265.21475,81.977875 Z M142.406,80.984125 L106.08475,80.984125 L106.08475,76.734125 C106.38475,76.506625 106.581,76.150375 106.581,75.746625 C106.581,75.060375 106.02475,74.504125 105.33975,74.504125 C104.65475,74.504125 104.09725,75.060375 104.09725,75.746625 C104.09725,76.150375 104.296,76.506625 104.59475,76.734125 L104.59475,80.984125 L95.06475,80.984125 C94.74975,80.535375 94.231,80.239125 93.63975,80.239125 C92.681,80.239125 91.9035,81.017875 91.9035,81.977875 C91.9035,82.937875 92.681,83.716625 93.63975,83.716625 C94.231,83.716625 94.74975,83.420375 95.06475,82.971625 L104.59475,82.971625 L104.59475,87.004125 C104.296,87.230375 104.09725,87.586625 104.09725,87.992875 C104.09725,88.676625 104.65475,89.234125 105.33975,89.234125 C106.02475,89.234125 106.581,88.676625 106.581,87.992875 C106.581,87.586625 106.38475,87.230375 106.08475,87.004125 L106.08475,82.971625 L142.406,82.971625 L144.8885,81.977875 L142.406,80.984125 Z M248.3035,102.929125 C248.2435,103.764125 248.18225,104.596625 248.12225,105.429125 C248.03225,105.414125 247.94225,105.406625 247.85225,105.406625 L247.5935,105.406625 L247.32725,105.406625 C247.241,105.406625 247.1535,105.414125 247.0635,105.429125 C247.3035,104.149125 247.51725,102.877875 247.706,101.612875 C247.8935,100.347875 248.066,99.064125 248.22475,97.762875 C248.30725,97.777875 248.3835,97.790375 248.456,97.801625 C248.526,97.812875 248.6035,97.819125 248.686,97.819125 C248.7535,97.819125 248.82475,97.812875 248.901,97.801625 C248.976,97.790375 249.05475,97.777875 249.13725,97.762875 C249.33975,98.209125 249.5535,98.664125 249.7735,99.124125 C249.99475,99.585375 250.21725,100.045375 250.43975,100.502875 C250.65975,100.960375 250.88225,101.407875 251.1035,101.847875 C251.326,102.285375 251.5385,102.702875 251.741,103.097875 C252.19225,102.264125 252.63975,101.391625 253.0885,100.481625 C253.53475,99.569125 253.96225,98.664125 254.36725,97.762875 C254.55475,97.799125 254.71725,97.819125 254.85225,97.819125 C254.97975,97.819125 255.136,97.799125 255.326,97.762875 C255.39975,98.402875 255.481,99.090375 255.56725,99.827875 C255.65475,100.564125 255.7385,101.282875 255.81975,101.986625 C255.90475,102.689125 255.986,103.346625 256.06975,103.956625 C256.15225,104.565375 256.22725,105.057875 256.2935,105.429125 C256.1435,105.414125 255.99225,105.406625 255.83725,105.406625 L255.38225,105.406625 L254.91975,105.406625 C254.76225,105.406625 254.60475,105.414125 254.446,105.429125 C254.40725,104.662875 254.34725,103.832875 254.25975,102.940375 C254.1735,102.047875 254.086,101.164125 253.99475,100.285375 L253.9735,100.285375 C253.54475,101.164125 253.1235,102.025375 252.711,102.874125 C252.29725,103.722875 251.88725,104.574125 251.48225,105.429125 C251.4435,105.421625 251.4085,105.415375 251.37475,105.411625 C251.33975,105.407875 251.30475,105.406625 251.26725,105.406625 C251.22975,105.406625 251.1935,105.407875 251.161,105.411625 C251.126,105.415375 251.091,105.421625 251.0535,105.429125 C250.64725,104.596625 250.2435,103.764125 249.841,102.929125 C249.43975,102.096625 249.02475,101.252875 248.596,100.395375 L248.5735,100.395375 C248.4535,101.252875 248.3635,102.096625 248.3035,102.929125 L248.3035,102.929125 Z M244.2585,101.367875 C244.2585,100.884125 244.19975,100.450375 244.0785,100.067875 C243.9585,99.684125 243.791,99.359125 243.576,99.090375 C243.3635,98.824125 243.1035,98.617875 242.7985,98.470375 C242.496,98.326625 242.1635,98.254125 241.80225,98.254125 C241.41975,98.254125 241.07475,98.345375 240.771,98.526625 C240.466,98.710375 240.2085,98.956625 239.9985,99.270375 C239.78725,99.581625 239.6285,99.949125 239.51975,100.367875 C239.40975,100.789125 239.356,101.237875 239.356,101.712875 C239.356,102.307875 239.41975,102.810375 239.5485,103.219125 C239.67475,103.627875 239.84725,103.957875 240.06725,104.206625 C240.28475,104.456625 240.53475,104.636625 240.821,104.747875 C241.106,104.860375 241.40725,104.916625 241.72225,104.916625 C242.06225,104.916625 242.3835,104.845375 242.69225,104.704125 C243.001,104.561625 243.2685,104.347875 243.4985,104.056625 C243.72725,103.767875 243.91225,103.397875 244.04975,102.951625 C244.18975,102.506625 244.2585,101.977875 244.2585,101.367875 L244.2585,101.367875 Z M237.5085,101.612875 C237.5085,101.062875 237.611,100.545375 237.81725,100.061625 C238.02475,99.577875 238.31475,99.152875 238.691,98.789125 C239.066,98.424125 239.521,98.139125 240.05475,97.931625 C240.58975,97.722875 241.181,97.617875 241.836,97.617875 C242.436,97.617875 242.99725,97.699125 243.516,97.862875 C244.03475,98.027875 244.48475,98.272875 244.8685,98.600375 C245.251,98.927875 245.5535,99.342875 245.77475,99.845375 C245.99725,100.345375 246.10725,100.931625 246.10725,101.601625 C246.10725,102.160375 246.001,102.681625 245.78725,103.164125 C245.57225,103.647875 245.276,104.069125 244.896,104.430375 C244.516,104.791625 244.0635,105.072875 243.53725,105.272875 C243.011,105.472875 242.43225,105.575375 241.80225,105.575375 C241.2085,105.575375 240.651,105.500375 240.1285,105.356625 C239.606,105.211625 239.151,104.976625 238.76475,104.654125 C238.37725,104.330375 238.071,103.917875 237.84475,103.414125 C237.621,102.912875 237.5085,102.311625 237.5085,101.612875 L237.5085,101.612875 Z M236.20475,104.642875 C236.15975,104.802875 236.12975,104.961625 236.11475,105.117875 C235.506,105.421625 234.7385,105.575375 233.81475,105.575375 C233.161,105.575375 232.57725,105.482875 232.06225,105.300375 C231.546,105.119125 231.11225,104.861625 230.75475,104.531625 C230.39725,104.199125 230.12475,103.807875 229.93725,103.354125 C229.74975,102.899125 229.656,102.410375 229.656,101.881625 C229.656,101.107875 229.77725,100.450375 230.02225,99.911625 C230.266,99.371625 230.5935,98.931625 231.0035,98.595375 C231.41225,98.255375 231.88725,98.009125 232.4285,97.851625 C232.96975,97.695375 233.536,97.617875 234.12975,97.617875 C234.326,97.617875 234.53225,97.632875 234.74975,97.662875 C234.9685,97.691625 235.1785,97.731625 235.381,97.780375 C235.58475,97.827875 235.77725,97.885375 235.96225,97.952875 C236.146,98.020375 236.30225,98.091625 236.42975,98.164125 C236.35475,98.350375 236.296,98.539125 236.256,98.727875 C236.21475,98.917875 236.186,99.109125 236.171,99.302875 L236.01225,99.302875 C235.72725,98.945375 235.4335,98.691625 235.13475,98.539125 C234.8335,98.385375 234.47975,98.309125 234.0735,98.309125 C233.7735,98.309125 233.46975,98.376625 233.166,98.510375 C232.86225,98.645375 232.586,98.849125 232.3385,99.124125 C232.08975,99.400375 231.88975,99.751625 231.736,100.179125 C231.581,100.606625 231.5035,101.119125 231.5035,101.712875 C231.5035,102.285375 231.58225,102.775375 231.74225,103.181625 C231.89975,103.585375 232.1035,103.917875 232.356,104.174125 C232.60725,104.430375 232.89225,104.617875 233.211,104.736625 C233.52975,104.856625 233.85225,104.916625 234.17475,104.916625 C234.356,104.916625 234.53975,104.895375 234.72725,104.854125 C234.916,104.814125 235.09975,104.757875 235.27975,104.686625 C235.45975,104.616625 235.631,104.529125 235.7935,104.425375 C235.95475,104.321625 236.09475,104.205375 236.216,104.079125 L236.36225,104.167875 C236.30225,104.325375 236.24975,104.482875 236.20475,104.642875 L236.20475,104.642875 Z M225.281,104.692875 C225.281,104.440375 225.37225,104.224125 225.55225,104.045375 C225.73225,103.867875 225.951,103.777875 226.206,103.777875 C226.461,103.777875 226.67975,103.867875 226.85975,104.045375 C227.03975,104.224125 227.12975,104.440375 227.12975,104.692875 C227.12975,104.946625 227.03975,105.155375 226.85975,105.322875 C226.67975,105.490375 226.461,105.575375 226.206,105.575375 C225.951,105.575375 225.73225,105.490375 225.55225,105.322875 C225.37225,105.155375 225.281,104.946625 225.281,104.692875 L225.281,104.692875 Z M205.3235,45.414125 C205.3235,45.967875 205.3735,46.504125 205.4735,47.020375 C205.57475,47.535375 205.74475,47.995375 205.98475,48.399125 C206.22725,48.802875 206.546,49.122875 206.94725,49.361625 C207.34725,49.599125 207.84225,49.717875 208.42975,49.717875 C209.01725,49.717875 209.511,49.599125 209.91225,49.361625 C210.3135,49.122875 210.63475,48.802875 210.87475,48.399125 C211.11475,47.995375 211.28475,47.535375 211.386,47.020375 C211.486,46.504125 211.536,45.967875 211.536,45.414125 C211.536,44.859125 211.486,44.322875 211.386,43.806625 C211.28475,43.290375 211.11475,42.832875 210.87475,42.427875 C210.63475,42.024125 210.3135,41.704125 209.91225,41.465375 C209.511,41.226625 209.01725,41.109125 208.42975,41.109125 C207.84225,41.109125 207.34725,41.226625 206.94725,41.465375 C206.546,41.704125 206.22725,42.024125 205.98475,42.427875 C205.74475,42.832875 205.57475,43.290375 205.4735,43.806625 C205.3735,44.322875 205.3235,44.859125 205.3235,45.414125 L205.3235,45.414125 Z M203.55975,45.414125 C203.55975,44.514125 203.70475,43.750375 203.991,43.121625 C204.2785,42.494125 204.656,41.984125 205.1235,41.594125 C205.59225,41.205375 206.11475,40.920375 206.69725,40.741625 C207.27725,40.562875 207.85475,40.474125 208.42975,40.474125 C209.01725,40.474125 209.5985,40.562875 210.1735,40.741625 C210.7485,40.920375 211.26975,41.205375 211.736,41.594125 C212.2035,41.984125 212.58225,42.494125 212.8685,43.121625 C213.15725,43.750375 213.29975,44.514125 213.29975,45.414125 C213.29975,46.312875 213.15725,47.076625 212.8685,47.704125 C212.58225,48.332875 212.2035,48.841625 211.736,49.232875 C211.26975,49.621625 210.7485,49.896625 210.1735,50.055375 C209.5985,50.214125 209.01725,50.292875 208.42975,50.292875 C207.85475,50.292875 207.27725,50.214125 206.69725,50.055375 C206.11475,49.896625 205.59225,49.621625 205.1235,49.232875 C204.656,48.841625 204.2785,48.332875 203.991,47.704125 C203.70475,47.076625 203.55975,46.312875 203.55975,45.414125 L203.55975,45.414125 Z M200.9535,38.014125 C200.9135,38.516625 200.8835,39.009125 200.8635,39.491625 C200.8435,39.974125 200.81975,40.460375 200.7935,40.950375 C200.93975,40.950375 201.21475,40.947875 201.61475,40.940375 C202.01475,40.934125 202.44975,40.916625 202.91725,40.891625 C202.9035,40.930375 202.89725,41.004125 202.89725,41.109125 L202.89725,41.306625 L202.89725,41.526625 C202.89725,41.617875 202.9035,41.684125 202.91725,41.724125 C202.7435,41.710375 202.5635,41.700375 202.376,41.692875 C202.1885,41.687875 201.9885,41.684125 201.776,41.684125 L200.7935,41.684125 C200.77975,41.737875 200.76225,41.949125 200.7435,42.317875 C200.7235,42.687875 200.70725,43.129125 200.6935,43.637875 C200.67975,44.146625 200.66975,44.679125 200.6635,45.234125 C200.65725,45.790375 200.6535,46.285375 200.6535,46.722875 C200.6535,47.092875 200.6635,47.456625 200.6835,47.812875 C200.7035,48.170375 200.766,48.491625 200.8735,48.775375 C200.97975,49.060375 201.141,49.289125 201.35475,49.460375 C201.56725,49.631625 201.876,49.717875 202.27475,49.717875 C202.3835,49.717875 202.52725,49.705375 202.70725,49.677875 C202.88725,49.652875 203.04475,49.617875 203.1785,49.579125 L203.1785,50.055375 C202.951,50.095375 202.69975,50.144125 202.42725,50.204125 C202.15225,50.264125 201.88975,50.292875 201.63475,50.292875 C200.7935,50.292875 200.17225,50.087875 199.77225,49.677875 C199.371,49.269125 199.171,48.667875 199.171,47.872875 C199.171,47.516625 199.17725,47.129125 199.191,46.712875 C199.2035,46.296625 199.221,45.839125 199.241,45.344125 C199.261,44.847875 199.27725,44.299125 199.291,43.697875 C199.3035,43.096625 199.311,42.424125 199.311,41.684125 L198.66975,41.684125 C198.5635,41.684125 198.4485,41.687875 198.3285,41.692875 C198.20975,41.700375 198.08225,41.710375 197.9485,41.724125 C197.961,41.644125 197.971,41.569125 197.9785,41.494125 C197.98475,41.422875 197.9885,41.346625 197.9885,41.267875 C197.9885,41.201625 197.98475,41.135375 197.9785,41.069125 C197.971,41.004125 197.961,40.937875 197.9485,40.869125 C198.54975,40.910375 198.98975,40.930375 199.271,40.930375 C199.25725,40.665375 199.2485,40.335375 199.241,39.937875 C199.23475,39.541625 199.21725,39.132875 199.191,38.707875 L200.8535,38.014125 L200.9535,38.014125 Z M303.0335,35.312875 C302.9535,33.302875 302.86725,31.290375 302.77225,29.281625 C304.1985,29.344125 305.61975,29.399125 307.03225,29.446625 C308.4435,29.494125 309.8635,29.516625 311.28975,29.516625 C312.71975,29.516625 314.131,29.494125 315.526,29.446625 C316.92225,29.399125 318.3335,29.344125 319.7635,29.281625 C319.6685,29.752875 319.6185,30.224125 319.6185,30.695375 C319.6185,31.165375 319.6685,31.637875 319.7635,32.107875 C318.746,32.046625 317.8185,31.984125 316.97725,31.919125 C316.13725,31.856625 315.2485,31.795375 314.31225,31.731625 C313.37725,31.669125 312.3535,31.612875 311.24225,31.566625 C310.1335,31.519125 308.79975,31.495375 307.246,31.495375 C307.21475,32.500375 307.1735,33.459125 307.12725,34.369125 C307.07975,35.281625 307.056,36.317875 307.056,37.479125 C307.056,38.704125 307.0635,39.897875 307.07975,41.060375 C307.09475,42.222875 307.1035,43.101625 307.1035,43.699125 C308.4985,43.699125 309.75225,43.682875 310.8635,43.651625 C311.97225,43.620375 312.9885,43.580375 313.9085,43.534125 C314.8285,43.486625 315.676,43.440375 316.45475,43.391625 C317.23225,43.345375 317.96975,43.290375 318.6685,43.226625 C318.5735,43.699125 318.52475,44.186625 318.52475,44.687875 C318.52475,45.159125 318.5735,45.630375 318.6685,46.101625 C317.8435,46.007875 316.88225,45.927875 315.7885,45.865375 C314.69475,45.802875 313.59975,45.764125 312.50475,45.747875 C311.411,45.732875 310.3785,45.716625 309.40975,45.701625 C308.4435,45.685375 307.67475,45.677875 307.1035,45.677875 C307.1035,45.960375 307.09475,46.266625 307.07975,46.595375 C307.0635,46.925375 307.056,47.342875 307.056,47.844125 L307.056,49.681625 L307.056,52.509125 C307.056,54.299125 307.0635,55.776625 307.07975,56.939125 C307.09475,58.100375 307.1185,58.980375 307.151,59.576625 L310.48225,59.576625 C311.68725,59.576625 312.86975,59.554125 314.0285,59.505375 C315.186,59.457875 316.27975,59.396625 317.31225,59.316625 C318.341,59.239125 319.23975,59.121625 319.99975,58.964125 C319.936,59.184125 319.89725,59.427875 319.881,59.694125 C319.866,59.961625 319.85725,60.205375 319.85725,60.424125 C319.85725,60.926625 319.90475,61.335375 319.99975,61.649125 C318.5735,61.586625 317.1535,61.555375 315.741,61.555375 L311.43475,61.555375 L307.1035,61.555375 C305.676,61.555375 304.231,61.586625 302.77225,61.649125 C302.86725,59.640375 302.9535,57.636625 303.0335,55.642875 C303.1135,53.649125 303.1535,51.612875 303.1535,49.540375 L303.1535,41.435375 C303.1535,39.362875 303.1135,37.321625 303.0335,35.312875 L303.0335,35.312875 Z M293.1635,60.542875 C292.54475,60.841625 291.79975,61.107875 290.926,61.342875 C290.0535,61.579125 289.07975,61.790375 288.001,61.979125 C286.921,62.167875 285.79475,62.262875 284.621,62.262875 C282.116,62.262875 279.7985,61.907875 277.6735,61.201625 C275.54725,60.494125 273.71475,59.420375 272.176,57.974125 C270.63725,56.530375 269.43225,54.762875 268.5585,52.674125 C267.68725,50.586625 267.24975,48.205375 267.24975,45.536625 C267.24975,42.866625 267.68725,40.487875 268.5585,38.399125 C269.43225,36.309125 270.65475,34.544125 272.2235,33.097875 C273.79475,31.652875 275.67475,30.552875 277.8635,29.799125 C280.05225,29.045375 282.4635,28.669125 285.096,28.669125 C287.191,28.669125 289.10225,28.880375 290.831,29.304125 C292.561,29.729125 294.09225,30.239125 295.42475,30.836625 C295.16975,31.275375 294.96475,31.871625 294.806,32.627875 C294.646,33.380375 294.51975,34.009125 294.42475,34.511625 L294.141,34.606625 C293.82225,34.227875 293.37725,33.804125 292.806,33.334125 C292.236,32.861625 291.5685,32.406625 290.8085,31.966625 C290.046,31.527875 289.191,31.157875 288.23725,30.859125 C287.286,30.560375 286.2385,30.411625 285.096,30.411625 C283.2235,30.411625 281.4885,30.711625 279.88475,31.306625 C278.2835,31.902875 276.88725,32.822875 275.6985,34.064125 C274.5085,35.304125 273.57975,36.874125 272.9135,38.774125 C272.24725,40.675375 271.91475,42.930375 271.91475,45.536625 C271.91475,48.144125 272.24725,50.395375 272.9135,52.296625 C273.57975,54.196625 274.5085,55.767875 275.6985,57.007875 C276.88725,58.250375 278.2835,59.167875 279.88475,59.764125 C281.4885,60.361625 283.2235,60.660375 285.096,60.660375 C286.2385,60.660375 287.2935,60.517875 288.261,60.235375 C289.22975,59.952875 290.1185,59.615375 290.926,59.222875 C291.73725,58.830375 292.466,58.406625 293.116,57.950375 C293.766,57.496625 294.3135,57.095375 294.75725,56.747875 L294.9485,56.939125 L294.51975,59.716625 C294.23475,59.969125 293.78225,60.244125 293.1635,60.542875 L293.1635,60.542875 Z M242.85975,46.996625 C243.6835,46.996625 244.541,47.011625 245.42975,47.044125 C246.3185,47.075375 247.1735,47.090375 247.99975,47.090375 C248.88725,47.090375 249.776,47.082875 250.6635,47.066625 C251.55225,47.051625 252.441,47.027875 253.32975,46.996625 L248.04725,35.027875 L242.85975,46.996625 Z M263.94225,61.649125 C263.49725,61.586625 263.0785,61.555375 262.68225,61.555375 L261.41975,61.555375 L260.1585,61.555375 C259.7635,61.555375 259.34225,61.586625 258.89725,61.649125 C258.676,60.926625 258.3735,60.056625 257.99475,59.035375 C257.6135,58.014125 257.19225,56.946625 256.7335,55.830375 C256.27225,54.715375 255.80475,53.584125 255.32975,52.439125 C254.8535,51.291625 254.40725,50.200375 253.996,49.162875 C252.981,49.132875 251.94975,49.109125 250.9035,49.091625 C249.856,49.077875 248.8085,49.069125 247.76225,49.069125 C246.77725,49.069125 245.811,49.077875 244.8585,49.091625 C243.90725,49.109125 242.9385,49.132875 241.956,49.162875 C240.93975,51.612875 240.021,53.945375 239.196,56.160375 C238.36975,58.374125 237.751,60.205375 237.3385,61.649125 C236.801,61.586625 236.2135,61.555375 235.5785,61.555375 C234.9435,61.555375 234.356,61.586625 233.8185,61.649125 C236.38725,56.152875 238.8935,50.687875 241.33725,45.252875 C243.781,39.819125 246.2385,34.291625 248.7135,28.669125 L249.61725,28.669125 C250.37975,30.491625 251.2035,32.461625 252.0935,34.581625 C252.981,36.701625 253.88475,38.845375 254.806,41.014125 C255.72475,43.180375 256.646,45.331625 257.566,47.467875 C258.486,49.604125 259.351,51.589125 260.1585,53.427875 C260.9685,55.265375 261.6985,56.906625 262.3485,58.351625 C262.99975,59.796625 263.52975,60.895375 263.94225,61.649125 L263.94225,61.649125 Z M217.6285,35.382875 C217.54725,33.389125 217.461,31.355375 217.366,29.281625 C218.79225,29.344125 220.2135,29.399125 221.626,29.446625 C223.03725,29.494125 224.45725,29.516625 225.8835,29.516625 C227.3135,29.516625 228.756,29.494125 230.21475,29.446625 C231.67475,29.399125 233.26225,29.344125 234.976,29.281625 C234.87975,29.752875 234.83225,30.224125 234.83225,30.695375 C234.83225,31.165375 234.87975,31.637875 234.976,32.107875 C234.11725,32.014125 233.08725,31.926625 231.881,31.847875 C230.67475,31.770375 229.446,31.707875 228.1935,31.660375 C226.9385,31.612875 225.7335,31.575375 224.57475,31.542875 C223.41725,31.511625 222.4585,31.495375 221.69725,31.495375 C221.66475,32.595375 221.641,33.647875 221.626,34.652875 C221.6085,35.656625 221.601,36.662875 221.601,37.667875 C221.601,38.767875 221.6085,39.780375 221.626,40.705375 C221.641,41.634125 221.6485,42.599125 221.6485,43.605375 C223.74225,43.605375 225.8135,43.572875 227.85975,43.510375 C229.906,43.447875 231.9285,43.320375 233.92725,43.132875 C233.79975,43.605375 233.73725,44.076625 233.73725,44.546625 C233.73725,45.017875 233.79975,45.489125 233.92725,45.960375 C233.13475,45.865375 232.23725,45.795375 231.2385,45.747875 C230.23975,45.701625 229.19975,45.661625 228.121,45.630375 C227.04225,45.599125 225.9485,45.582875 224.83725,45.582875 L221.6485,45.582875 L221.6485,49.587875 C221.6485,51.660375 221.6885,53.704125 221.76725,55.712875 C221.84725,57.724125 221.93475,59.702875 222.0285,61.649125 C221.2985,61.586625 220.52225,61.555375 219.6985,61.555375 C218.87225,61.555375 218.096,61.586625 217.366,61.649125 C217.461,59.702875 217.54725,57.724125 217.6285,55.712875 C217.70725,53.704125 217.746,51.660375 217.746,49.587875 L217.746,41.482875 C217.746,39.410375 217.70725,37.376625 217.6285,35.382875 L217.6285,35.382875 Z M246.90975,88.914125 C247.14725,89.235375 247.436,89.525375 247.7785,89.785375 C248.11975,90.046625 248.51975,90.259125 248.976,90.424125 C249.42975,90.589125 249.9385,90.671625 250.501,90.671625 C251.0785,90.671625 251.59975,90.570375 252.06475,90.371625 C252.52975,90.172875 252.92475,89.902875 253.2485,89.564125 C253.5735,89.225375 253.82225,88.826625 253.9985,88.366625 C254.1735,87.906625 254.261,87.416625 254.261,86.896625 C254.261,86.096625 254.05475,85.462875 253.6435,84.995375 C253.231,84.526625 252.7185,84.135375 252.106,83.824125 C251.491,83.510375 250.82975,83.224125 250.1185,82.962875 C249.4085,82.702875 248.746,82.377875 248.1335,81.987875 C247.51975,81.596625 247.00725,81.099125 246.59475,80.491625 C246.18225,79.882875 245.976,79.066625 245.976,78.044125 C245.976,77.315375 246.1085,76.650375 246.37225,76.051625 C246.63475,75.451625 247.016,74.935375 247.51475,74.501625 C248.01475,74.069125 248.616,73.729125 249.316,73.486625 C250.01725,73.244125 250.8085,73.121625 251.68475,73.121625 C252.526,73.121625 253.25225,73.221625 253.866,73.421625 C254.47975,73.620375 255.04975,73.929125 255.576,74.346625 C255.4185,74.640375 255.2885,74.954125 255.18225,75.282875 C255.07725,75.612875 254.97225,76.029125 254.86725,76.532875 L254.551,76.532875 C254.46225,76.289125 254.34475,76.025375 254.196,75.739125 C254.046,75.451625 253.8435,75.186625 253.591,74.944125 C253.33725,74.702875 253.0335,74.497875 252.68475,74.332875 C252.33225,74.167875 251.911,74.086625 251.42225,74.086625 C250.92975,74.086625 250.4785,74.164125 250.066,74.319125 C249.65475,74.475375 249.29475,74.697875 248.9885,74.982875 C248.67975,75.269125 248.44475,75.612875 248.2785,76.012875 C248.10975,76.411625 248.0285,76.845375 248.0285,77.315375 C248.0285,78.130375 248.23475,78.772875 248.646,79.241625 C249.0585,79.709125 249.571,80.104125 250.186,80.426625 C250.79975,80.746625 251.461,81.032875 252.16975,81.284125 C252.881,81.535375 253.54225,81.845375 254.156,82.209125 C254.771,82.574125 255.2835,83.042875 255.69475,83.616625 C256.10725,84.187875 256.31225,84.952875 256.31225,85.906625 C256.31225,86.704125 256.1685,87.460375 255.87975,88.171625 C255.58975,88.882875 255.1685,89.504125 254.616,90.032875 C254.06475,90.561625 253.38975,90.970375 252.591,91.256625 C251.7935,91.542875 250.886,91.686625 249.86975,91.686625 C248.78225,91.686625 247.89975,91.542875 247.226,91.256625 C246.551,90.970375 245.98475,90.646625 245.52975,90.280375 C245.6885,89.880375 245.79725,89.521625 245.8585,89.199125 C245.91975,88.879125 245.976,88.466625 246.0285,87.962875 L246.34475,87.962875 C246.486,88.275375 246.6735,88.591625 246.90975,88.914125 L246.90975,88.914125 Z M228.63225,76.794125 C228.5885,75.682875 228.53975,74.570375 228.48725,73.461625 C229.276,73.495375 230.061,73.525375 230.841,73.551625 C231.621,73.577875 232.406,73.590375 233.196,73.590375 C233.98475,73.590375 234.7635,73.577875 235.536,73.551625 C236.30725,73.525375 237.08725,73.495375 237.876,73.461625 C237.8235,73.721625 237.79725,73.981625 237.79725,74.241625 C237.79725,74.501625 237.8235,74.762875 237.876,75.022875 C237.31475,74.987875 236.8035,74.954125 236.33725,74.919125 C235.87225,74.884125 235.38225,74.849125 234.866,74.815375 C234.3485,74.780375 233.78225,74.750375 233.1685,74.722875 C232.55475,74.697875 231.8185,74.684125 230.95975,74.684125 C230.941,75.239125 230.9185,75.769125 230.8935,76.272875 C230.866,76.776625 230.85475,77.349125 230.85475,77.991625 C230.85475,78.669125 230.8585,79.327875 230.866,79.970375 C230.876,80.611625 230.87975,81.099125 230.87975,81.427875 C231.65225,81.427875 232.34475,81.419125 232.9585,81.401625 C233.5735,81.384125 234.13225,81.362875 234.641,81.336625 C235.14975,81.310375 235.6185,81.284125 236.0485,81.259125 C236.4785,81.232875 236.886,81.202875 237.27225,81.167875 C237.21975,81.427875 237.19225,81.696625 237.19225,81.974125 C237.19225,82.234125 237.21975,82.495375 237.27225,82.755375 C236.816,82.702875 236.28475,82.660375 235.681,82.626625 C235.076,82.590375 234.471,82.570375 233.866,82.560375 C233.261,82.551625 232.68975,82.542875 232.156,82.534125 C231.621,82.525375 231.196,82.521625 230.87975,82.521625 C230.87975,82.677875 230.876,82.845375 230.866,83.030375 C230.8585,83.211625 230.85475,83.441625 230.85475,83.720375 L230.85475,84.734125 L230.85475,86.296625 C230.85475,87.285375 230.8585,88.102875 230.866,88.744125 C230.876,89.387875 230.8885,89.871625 230.90725,90.202875 L232.74725,90.202875 C233.41475,90.202875 234.06725,90.189125 234.70725,90.164125 C235.346,90.136625 235.95225,90.102875 236.52225,90.060375 C237.09225,90.016625 237.58725,89.950375 238.00725,89.864125 C237.97225,89.985375 237.94975,90.120375 237.94225,90.267875 C237.9335,90.415375 237.9285,90.549125 237.9285,90.671625 C237.9285,90.949125 237.95475,91.174125 238.00725,91.347875 C237.21975,91.314125 236.43475,91.296625 235.65475,91.296625 L233.2735,91.296625 L230.87975,91.296625 C230.091,91.296625 229.29475,91.314125 228.48725,91.347875 C228.53975,90.236625 228.5885,89.130375 228.63225,88.027875 C228.676,86.926625 228.69725,85.802875 228.69725,84.656625 L228.69725,80.177875 C228.69725,79.032875 228.676,77.904125 228.63225,76.794125 L228.63225,76.794125 Z M205.50225,80.307875 C206.7385,82.634125 208.031,85.021625 209.38225,87.469125 C209.55725,87.139125 209.811,86.665375 210.14475,86.049125 C210.47725,85.432875 210.86475,84.725375 211.30225,83.927875 C211.73975,83.129125 212.20975,82.264125 212.70975,81.336625 C213.20975,80.407875 213.71725,79.466625 214.23475,78.512875 C214.751,77.556625 215.26475,76.620375 215.7735,75.700375 C216.281,74.780375 216.7535,73.920375 217.1935,73.121625 L217.53475,73.121625 C217.7285,74.789125 217.90725,76.397875 218.0735,77.951625 C218.23975,79.505375 218.41225,81.032875 218.58725,82.534125 C218.76225,84.035375 218.9385,85.520375 219.1135,86.986625 C219.2885,88.454125 219.481,89.906625 219.69225,91.347875 C219.481,91.314125 219.27475,91.296625 219.07475,91.296625 L218.456,91.296625 L217.8385,91.296625 C217.636,91.296625 217.42975,91.314125 217.21975,91.347875 C217.02725,89.039125 216.8335,86.800375 216.641,84.630375 C216.44725,82.461625 216.211,80.246625 215.931,77.991625 L215.8785,77.991625 C214.6685,80.177875 213.47975,82.352875 212.31475,84.512875 C211.14725,86.674125 210.03975,88.935375 208.9885,91.296625 L208.751,91.296625 C207.6985,89.107875 206.59725,86.917875 205.4485,84.720375 C204.30225,82.525375 203.14975,80.282875 201.99225,77.991625 L201.93975,77.991625 C201.816,79.066625 201.681,80.234125 201.531,81.491625 C201.38225,82.751625 201.246,83.991625 201.12475,85.216625 C201.001,86.439125 200.896,87.594125 200.8085,88.677875 C200.71975,89.764125 200.676,90.654125 200.676,91.347875 C200.39725,91.314125 200.0885,91.296625 199.75725,91.296625 C199.42225,91.296625 199.116,91.314125 198.83475,91.347875 C199.06225,89.941625 199.301,88.457875 199.546,86.896625 C199.791,85.334125 200.0285,83.762875 200.25475,82.182875 C200.48475,80.602875 200.69475,79.044125 200.88725,77.509125 C201.07975,75.972875 201.246,74.510375 201.386,73.121625 L201.83475,73.121625 C203.04475,75.587875 204.26725,77.982875 205.50225,80.307875 L205.50225,80.307875 Z M181.07475,83.250375 C181.53225,83.250375 182.006,83.259125 182.496,83.276625 C182.98725,83.294125 183.461,83.302875 183.91725,83.302875 C184.40725,83.302875 184.89725,83.299125 185.38975,83.289125 C185.87975,83.280375 186.37225,83.267875 186.861,83.250375 L183.94225,76.637875 L181.07475,83.250375 Z M192.72725,91.347875 C192.481,91.314125 192.24975,91.296625 192.02975,91.296625 L191.3335,91.296625 L190.636,91.296625 C190.41725,91.296625 190.186,91.314125 189.9385,91.347875 C189.81725,90.949125 189.651,90.466625 189.43975,89.902875 C189.22975,89.339125 188.996,88.749125 188.74225,88.132875 C188.4885,87.517875 188.2285,86.892875 187.966,86.257875 C187.7035,85.624125 187.45725,85.021625 187.22975,84.449125 C186.6685,84.431625 186.09975,84.417875 185.521,84.409125 C184.941,84.400375 184.36225,84.396625 183.7835,84.396625 C183.24225,84.396625 182.70725,84.400375 182.17975,84.409125 C181.6535,84.417875 181.11975,84.431625 180.576,84.449125 C180.016,85.802875 179.50725,87.091625 179.051,88.314125 C178.59475,89.539125 178.2535,90.549125 178.02475,91.347875 C177.72725,91.314125 177.40225,91.296625 177.05225,91.296625 C176.69975,91.296625 176.37725,91.314125 176.0785,91.347875 C177.49975,88.310375 178.88475,85.289125 180.23475,82.286625 C181.58475,79.285375 182.9435,76.229125 184.30975,73.121625 L184.811,73.121625 C185.23225,74.129125 185.68725,75.217875 186.1785,76.389125 C186.6685,77.561625 187.1685,78.745375 187.6785,79.944125 C188.18475,81.141625 188.6935,82.330375 189.20225,83.510375 C189.71225,84.691625 190.1885,85.789125 190.636,86.804125 C191.0835,87.820375 191.48725,88.726625 191.846,89.525375 C192.206,90.324125 192.4985,90.931625 192.72725,91.347875 L192.72725,91.347875 Z M167.88725,75.700375 C167.491,75.387875 167.0535,75.114125 166.571,74.879125 C166.0885,74.644125 165.5535,74.452875 164.96725,74.306625 C164.3785,74.159125 163.75225,74.086625 163.086,74.086625 C161.9985,74.086625 160.986,74.250375 160.0485,74.579125 C159.111,74.910375 158.29475,75.417875 157.60225,76.104125 C156.9085,76.789125 156.366,77.656625 155.971,78.707875 C155.57725,79.756625 155.381,81.002875 155.381,82.444125 C155.381,83.711625 155.55475,84.855375 155.90725,85.880375 C156.256,86.904125 156.76975,87.767875 157.44475,88.470375 C158.1185,89.174125 158.9435,89.715375 159.91725,90.097875 C160.891,90.480375 161.98975,90.671625 163.21725,90.671625 C163.586,90.671625 163.971,90.654125 164.37475,90.617875 C164.7785,90.584125 165.16725,90.531625 165.546,90.462875 C165.921,90.392875 166.2735,90.306625 166.59725,90.202875 C166.921,90.097875 167.19725,89.975375 167.426,89.837875 C167.4435,89.316625 167.456,88.796625 167.466,88.275375 C167.47475,87.754125 167.4785,87.225375 167.4785,86.687875 C167.4785,86.079125 167.466,85.471625 167.4385,84.864125 C167.4135,84.257875 167.38225,83.675375 167.34725,83.120375 C167.78475,83.206625 168.206,83.250375 168.60975,83.250375 C168.80225,83.250375 168.9935,83.241625 169.1885,83.224125 C169.381,83.206625 169.5635,83.172875 169.73975,83.120375 C169.70475,83.519125 169.67725,84.147875 169.661,85.007875 C169.6435,85.866625 169.63475,87.000375 169.63475,88.406625 C169.63475,88.754125 169.6385,89.104125 169.6485,89.460375 C169.65725,89.816625 169.661,90.167875 169.661,90.514125 C169.2935,90.654125 168.8335,90.797875 168.27975,90.944125 C167.7285,91.091625 167.13975,91.214125 166.5185,91.309125 C165.896,91.404125 165.27225,91.490375 164.651,91.569125 C164.0285,91.646625 163.4635,91.686625 162.95475,91.686625 C161.3935,91.686625 159.986,91.499125 158.73225,91.125375 C157.47975,90.754125 156.41475,90.176625 155.5385,89.396625 C154.66225,88.614125 153.98725,87.641625 153.5135,86.479125 C153.03975,85.316625 152.80225,83.971625 152.80225,82.444125 C152.80225,80.966625 153.0485,79.652875 153.5385,78.497875 C154.031,77.345375 154.72225,76.367875 155.616,75.569125 C156.511,74.771625 157.59225,74.164125 158.86475,73.746625 C160.136,73.329125 161.5435,73.121625 163.086,73.121625 C163.97975,73.121625 164.7735,73.169125 165.466,73.264125 C166.15975,73.359125 166.77225,73.486625 167.3085,73.642875 C167.84225,73.799125 168.311,73.964125 168.71475,74.137875 C169.11725,74.310375 169.47725,74.475375 169.7935,74.631625 C169.65225,74.875375 169.52475,75.186625 169.411,75.569125 C169.2985,75.951625 169.2235,76.307875 169.1885,76.637875 L168.87225,76.637875 C168.60975,76.325375 168.27975,76.012875 167.88725,75.700375 L167.88725,75.700375 Z M178.366,35.312875 C178.286,33.302875 178.19975,31.290375 178.10475,29.281625 C179.531,29.344125 180.951,29.399125 182.3635,29.446625 C183.77475,29.494125 185.19475,29.516625 186.62225,29.516625 C188.051,29.516625 189.461,29.494125 190.8585,29.446625 C192.25475,29.399125 193.666,29.344125 195.0935,29.281625 C194.9985,29.752875 194.951,30.224125 194.951,30.695375 C194.951,31.165375 194.9985,31.637875 195.0935,32.107875 C194.0785,32.046625 193.14975,31.984125 192.30975,31.919125 C191.46975,31.856625 190.57975,31.795375 189.64475,31.731625 C188.7085,31.669125 187.686,31.612875 186.57475,31.566625 C185.4635,31.519125 184.13225,31.495375 182.5785,31.495375 C182.546,32.500375 182.50475,33.459125 182.4585,34.369125 C182.411,35.281625 182.386,36.317875 182.386,37.479125 C182.386,38.704125 182.3935,39.897875 182.411,41.060375 C182.426,42.222875 182.4335,43.101625 182.4335,43.699125 C183.831,43.699125 185.08475,43.682875 186.1935,43.651625 C187.30475,43.620375 188.31975,43.580375 189.23975,43.534125 C190.15975,43.486625 191.0085,43.440375 191.786,43.391625 C192.5635,43.345375 193.301,43.290375 193.9985,43.226625 C193.9035,43.699125 193.856,44.186625 193.856,44.687875 C193.856,45.159125 193.9035,45.630375 193.9985,46.101625 C193.1735,46.007875 192.21475,45.927875 191.121,45.865375 C190.026,45.802875 188.93225,45.764125 187.83725,45.747875 C186.74225,45.732875 185.70975,45.716625 184.74225,45.701625 C183.77475,45.685375 183.00475,45.677875 182.4335,45.677875 C182.4335,45.960375 182.426,46.266625 182.411,46.595375 C182.3935,46.925375 182.386,47.342875 182.386,47.844125 L182.386,49.681625 L182.386,52.509125 C182.386,54.299125 182.3935,55.776625 182.411,56.939125 C182.426,58.100375 182.44975,58.980375 182.481,59.576625 L185.8135,59.576625 C187.0185,59.576625 188.201,59.554125 189.3585,59.505375 C190.516,59.457875 191.611,59.396625 192.64225,59.316625 C193.6735,59.239125 194.56975,59.121625 195.33225,58.964125 C195.26725,59.184125 195.2285,59.427875 195.21225,59.694125 C195.196,59.961625 195.1885,60.205375 195.1885,60.424125 C195.1885,60.926625 195.236,61.335375 195.33225,61.649125 C193.9035,61.586625 192.4835,61.555375 191.0735,61.555375 L186.76475,61.555375 L182.4335,61.555375 C181.00725,61.555375 179.5635,61.586625 178.10475,61.649125 C178.19975,59.640375 178.286,57.636625 178.366,55.642875 C178.44475,53.649125 178.4835,51.612875 178.4835,49.540375 L178.4835,41.435375 C178.4835,39.362875 178.44475,37.321625 178.366,35.312875 L178.366,35.312875 Z M168.49475,60.542875 C167.87725,60.841625 167.12975,61.107875 166.2585,61.342875 C165.386,61.579125 164.40975,61.790375 163.331,61.979125 C162.2535,62.167875 161.126,62.262875 159.95225,62.262875 C157.446,62.262875 155.131,61.907875 153.0035,61.201625 C150.8785,60.494125 149.046,59.420375 147.5085,57.974125 C145.9685,56.530375 144.7635,54.762875 143.88975,52.674125 C143.0185,50.586625 142.58225,48.205375 142.58225,45.536625 C142.58225,42.866625 143.0185,40.487875 143.88975,38.399125 C144.7635,36.309125 145.98475,34.544125 147.556,33.097875 C149.126,31.652875 151.006,30.552875 153.196,29.799125 C155.38475,29.045375 157.79475,28.669125 160.4285,28.669125 C162.52225,28.669125 164.4335,28.880375 166.1635,29.304125 C167.8935,29.729125 169.4235,30.239125 170.756,30.836625 C170.501,31.275375 170.29475,31.871625 170.136,32.627875 C169.9785,33.380375 169.85225,34.009125 169.756,34.511625 L169.471,34.606625 C169.1535,34.227875 168.70975,33.804125 168.1385,33.334125 C167.56725,32.861625 166.901,32.406625 166.13975,31.966625 C165.3785,31.527875 164.521,31.157875 163.56975,30.859125 C162.61725,30.560375 161.571,30.411625 160.4285,30.411625 C158.556,30.411625 156.8185,30.711625 155.21725,31.306625 C153.61475,31.902875 152.21975,32.822875 151.0285,34.064125 C149.8385,35.304125 148.91225,36.874125 148.246,38.774125 C147.57975,40.675375 147.246,42.930375 147.246,45.536625 C147.246,48.144125 147.57975,50.395375 148.246,52.296625 C148.91225,54.196625 149.8385,55.767875 151.0285,57.007875 C152.21975,58.250375 153.61475,59.167875 155.21725,59.764125 C156.8185,60.361625 158.556,60.660375 160.4285,60.660375 C161.571,60.660375 162.62475,60.517875 163.5935,60.235375 C164.561,59.952875 165.44975,59.615375 166.2585,59.222875 C167.06725,58.830375 167.796,58.406625 168.44725,57.950375 C169.096,57.496625 169.64475,57.095375 170.0885,56.747875 L170.27975,56.939125 L169.85225,59.716625 C169.56475,59.969125 169.1135,60.244125 168.49475,60.542875 L168.49475,60.542875 Z M118.19225,46.996625 C119.016,46.996625 119.87225,47.011625 120.761,47.044125 C121.6485,47.075375 122.50475,47.090375 123.331,47.090375 C124.2185,47.090375 125.10725,47.082875 125.996,47.066625 C126.8835,47.051625 127.7735,47.027875 128.661,46.996625 L123.3785,35.027875 L118.19225,46.996625 Z M139.27475,61.649125 C138.82975,61.586625 138.40975,61.555375 138.0135,61.555375 L136.751,61.555375 L135.491,61.555375 C135.0935,61.555375 134.67225,61.586625 134.22975,61.649125 C134.006,60.926625 133.706,60.056625 133.32475,59.035375 C132.946,58.014125 132.5235,56.946625 132.0635,55.830375 C131.6035,54.715375 131.136,53.584125 130.65975,52.439125 C130.18475,51.291625 129.73975,50.200375 129.32725,49.162875 C128.31225,49.132875 127.281,49.109125 126.2335,49.091625 C125.1885,49.077875 124.141,49.069125 123.0935,49.069125 C122.10975,49.069125 121.141,49.077875 120.18975,49.091625 C119.2385,49.109125 118.26975,49.132875 117.286,49.162875 C116.27225,51.612875 115.351,53.945375 114.52725,56.160375 C113.70225,58.374125 113.0835,60.205375 112.671,61.649125 C112.131,61.586625 111.5435,61.555375 110.90975,61.555375 C110.27475,61.555375 109.68725,61.586625 109.1485,61.649125 C111.7185,56.152875 114.22475,50.687875 116.6685,45.252875 C119.111,39.819125 121.571,34.291625 124.04475,28.669125 L124.9485,28.669125 C125.70975,30.491625 126.536,32.461625 127.42475,34.581625 C128.31225,36.701625 129.216,38.845375 130.136,41.014125 C131.05725,43.180375 131.976,45.331625 132.89725,47.467875 C133.81725,49.604125 134.681,51.589125 135.491,53.427875 C136.29975,55.265375 137.0285,56.906625 137.67975,58.351625 C138.32975,59.796625 138.861,60.895375 139.27475,61.649125 L139.27475,61.649125 Z M92.9585,35.382875 C92.87975,33.389125 92.7935,31.355375 92.69725,29.281625 C94.12475,29.344125 95.54475,29.399125 96.95725,29.446625 C98.3685,29.494125 99.7885,29.516625 101.216,29.516625 C102.6435,29.516625 104.08725,29.494125 105.54725,29.446625 C107.006,29.399125 108.5935,29.344125 110.306,29.281625 C110.211,29.752875 110.1635,30.224125 110.1635,30.695375 C110.1635,31.165375 110.211,31.637875 110.306,32.107875 C109.44975,32.014125 108.41725,31.926625 107.21225,31.847875 C106.00725,31.770375 104.77725,31.707875 103.52475,31.660375 C102.271,31.612875 101.066,31.575375 99.90725,31.542875 C98.7485,31.511625 97.791,31.495375 97.02725,31.495375 C96.996,32.595375 96.971,33.647875 96.95725,34.652875 C96.93975,35.656625 96.93225,36.662875 96.93225,37.667875 C96.93225,38.767875 96.93975,39.780375 96.95725,40.705375 C96.971,41.634125 96.97975,42.599125 96.97975,43.605375 C99.07475,43.605375 101.14475,43.572875 103.191,43.510375 C105.23725,43.447875 107.25975,43.320375 109.2585,43.132875 C109.131,43.605375 109.0685,44.076625 109.0685,44.546625 C109.0685,45.017875 109.131,45.489125 109.2585,45.960375 C108.466,45.865375 107.56975,45.795375 106.56975,45.747875 C105.571,45.701625 104.531,45.661625 103.4535,45.630375 C102.37475,45.599125 101.27975,45.582875 100.1685,45.582875 L96.97975,45.582875 L96.97975,49.587875 C96.97975,51.660375 97.0185,53.704125 97.09975,55.712875 C97.1785,57.724125 97.26725,59.702875 97.361,61.649125 C96.631,61.586625 95.85475,61.555375 95.02975,61.555375 C94.2035,61.555375 93.42725,61.586625 92.69725,61.649125 C92.7935,59.702875 92.87975,57.724125 92.9585,55.712875 C93.0385,53.704125 93.07725,51.660375 93.07725,49.587875 L93.07725,41.482875 C93.07725,39.410375 93.0385,37.376625 92.9585,35.382875 L92.9585,35.382875 Z" id="Fill-1" fill="#38372E"></path>
                        <mask id="mask-2" fill="white">
                            <use xlink:href="#path-1"></use>
                        </mask>
                        <g id="Clip-4"></g>
                        <path d="M37.662,0.0005 C39.582,0.0005 41.13825,1.55675 41.13825,3.4755 C41.13825,4.423 40.7595,5.2805 40.1445,5.9055 L40.1445,29.048 L48.89575,29.048 C49.262,28.3155 50.01325,27.80675 50.88825,27.80675 C52.12325,27.80675 53.12325,28.808 53.12325,30.04175 C53.12325,31.2755 52.12325,32.2755 50.88825,32.2755 C50.01325,32.2755 49.262,31.768 48.89575,31.03425 L40.1445,31.03425 L40.1445,111.2805 L37.662,117.2405 L35.1795,111.2805 L35.1795,31.03425 L26.032,31.03425 C25.66575,31.768 24.917,32.2755 24.042,32.2755 C22.80575,32.2755 21.807,31.2755 21.807,30.04175 C21.807,28.808 22.80575,27.80675 24.042,27.80675 C24.917,27.80675 25.66575,28.3155 26.032,29.048 L35.1795,29.048 L35.1795,5.9055 C34.56575,5.2805 34.187,4.423 34.187,3.4755 C34.187,1.55675 35.742,0.0005 37.662,0.0005 Z M10.9745,69.07675 C11.812,83.96425 23.97825,93.4555 32.697,98.37925 L32.697,98.37925 L32.697,110.6705 C20.66575,105.1855 11.74325,97.74925 6.16075,88.5355 C1.4395,80.743 0.25575,73.48425 0.04075,69.07675 L0.04075,69.07675 Z M75.283125,69.07625 C75.068125,73.48375 73.885625,80.7425 69.163125,88.535 C63.581875,97.74875 54.660625,105.18625 42.628125,110.67 L42.628125,110.67 L42.628125,98.37875 C51.346875,93.455 63.514375,83.96375 64.350625,69.07625 L64.350625,69.07625 Z" id="Combined-Shape" fill="#38372E" mask="url(#mask-2)"></path>
                        <mask id="mask-4" fill="white">
                            <use xlink:href="#path-3"></use>
                        </mask>
                        <g id="Clip-7"></g>
                        <path d="M0.3745,9.2985 C4.417,12.5585 10.09825,14.58975 16.39575,14.58975 C22.69325,14.58975 28.3745,12.5585 32.41575,9.2985 L32.697,9.2985 L32.697,23.2035 L10.92575,23.2035 L10.92575,36.30725 L32.697,36.30725 L32.697,46.736 L10.92575,46.736 L10.92575,66.44475 L-0.0005,66.44475 L-0.0005,9.2985 L0.3745,9.2985 Z M42.909375,9.299 C46.951875,12.559 52.633125,14.59025 58.930625,14.59025 C65.228125,14.59025 70.908125,12.559 74.950625,9.299 L75.324375,9.299 L75.324375,66.444 L64.400625,66.444 L64.400625,46.7365 L42.628125,46.7365 L42.628125,36.30775 L64.400625,36.30775 L64.400625,23.204 L42.628125,23.204 L42.628125,9.299 L42.909375,9.299 Z" id="Combined-Shape" fill="#C64D23" mask="url(#mask-4)"></path>
                    </g>
                </g>
            </g>
        </g>
    </g>
</svg>
