<svg width="852" height="1321" viewBox="0 0 852 1321" fill="none" xmlns="http://www.w3.org/2000/svg">
<mask id="mask0_26_6" style="mask-type:alpha" maskUnits="userSpaceOnUse" x="0" y="0" width="852" height="1321">
<path d="M245.274 470.764C389.571 276.094 369.966 75.6473 342.652 0C713.165 254.137 726.229 499.835 564.723 718.336C435.518 893.138 423.01 968.097 432.906 983.727C659.014 971.723 691.79 765.538 679.915 663.945C1069.43 1039.99 712.031 1326.48 424.593 1320.39C107.519 1313.67 -49.2364 1052.18 13.7033 857.127C43.0922 734.98 150.919 598.058 245.274 470.764Z" fill="url(#paint0_linear_26_6)"/>
</mask>
<g mask="url(#mask0_26_6)">
<path d="M245.274 470.764C389.571 276.094 369.966 75.6473 342.652 0C713.165 254.137 726.229 499.835 564.723 718.336C435.518 893.138 423.01 968.097 432.906 983.727C659.014 971.723 691.79 765.538 679.915 663.945C1069.43 1039.99 712.031 1326.48 424.593 1320.39C107.519 1313.67 -49.2364 1052.18 13.7033 857.127C43.0922 734.98 150.919 598.058 245.274 470.764Z" fill="url(#paint1_linear_26_6)"/>
<path d="M294.895 603.928C468.277 305.715 400.994 131.601 365.763 44.0755C647.211 532.657 504.706 587.048 438.204 764.287C372.13 940.385 380.211 1043.62 495.59 1047.5C618.066 1051.61 695.385 832.699 714.901 704.27C1061.66 1176.91 268.783 1364.04 169.016 1047.5C130.251 924.503 151.933 849.819 294.895 603.928Z" fill="url(#paint2_linear_26_6)" fill-opacity="0.7"/>
<path d="M255.32 603.928C428.702 305.715 398.616 126.912 363.386 39.3866C518.955 327.284 321.822 601.114 255.32 778.354C95.768 1203.59 719.651 1263.18 824.155 860.878C952.409 1203.17 343.085 1467.96 122.317 1106.58C28.936 953.718 112.358 849.819 255.32 603.928Z" fill="url(#paint3_linear_26_6)"/>
</g>
<defs>
<linearGradient id="paint0_linear_26_6" x1="754.089" y1="20.6311" x2="195.322" y2="1196.13" gradientUnits="userSpaceOnUse">
<stop stop-color="#FF8642"/>
<stop offset="1" stop-color="#8A08DA"/>
</linearGradient>
<linearGradient id="paint1_linear_26_6" x1="497.58" y1="20.6311" x2="340.742" y2="1331.46" gradientUnits="userSpaceOnUse">
<stop stop-color="#FF9C65"/>
<stop offset="0.324563" stop-color="#F9535F"/>
<stop offset="0.506171" stop-color="#BD0173"/>
<stop offset="0.721379" stop-color="#AF0484"/>
<stop offset="1" stop-color="#5D0D9B"/>
</linearGradient>
<linearGradient id="paint2_linear_26_6" x1="505.774" y1="39.3866" x2="505.774" y2="1169.83" gradientUnits="userSpaceOnUse">
<stop stop-color="#D53F1D" stop-opacity="0.9"/>
<stop offset="1" stop-color="#8427B3"/>
</linearGradient>
<linearGradient id="paint3_linear_26_6" x1="463.142" y1="148.169" x2="374.687" y2="1266.43" gradientUnits="userSpaceOnUse">
<stop stop-color="#FFA794"/>
<stop offset="0.408872" stop-color="#CC629A"/>
<stop offset="0.52899" stop-color="#CC629A"/>
<stop offset="1" stop-color="#9013A1"/>
</linearGradient>
</defs>
</svg>
