<svg width="100" height="100" viewBox="0 0 100 100" fill="none" xmlns="http://www.w3.org/2000/svg">
<path d="M39.1194 36.2248C47.4259 22.0722 46.2973 7.4996 44.725 2C66.0539 20.4759 66.8059 38.3383 57.5087 54.2235C50.0709 66.9317 49.3509 72.3813 49.9205 73.5176C62.9366 72.6449 64.8234 57.6551 64.1398 50.2692C86.5625 77.6082 65.9886 98.4361 49.442 97.9931C31.1894 97.5043 22.1657 78.4945 25.7888 64.3137C27.4806 55.4335 33.6877 45.4792 39.1194 36.2248Z" fill="url(#paint0_linear_10_4)"/>
<path d="M42.1327 46.0168C52.0009 24.1686 48.1715 11.4124 46.1663 5C62.1852 40.7952 54.0744 44.7801 50.2893 57.7653C46.5286 70.6668 46.9886 78.2305 53.5555 78.5141C60.5264 78.8152 64.9271 62.7774 66.0379 53.3682C85.7743 87.9954 40.6465 101.705 34.9682 78.5141C32.7618 69.5033 33.9958 64.0316 42.1327 46.0168Z" fill="url(#paint1_linear_10_4)" fill-opacity="0.7"/>
<path d="M40.0015 45.9679C50.0541 24.327 48.3098 11.3516 46.2671 5C55.287 25.8922 43.8573 45.7637 40.0015 58.6257C30.7507 89.4841 66.4409 94.1947 72.5 65C79.9362 89.8393 45.0901 108.669 32.29 82.4442C26.8758 71.3516 31.7126 63.8118 40.0015 45.9679Z" fill="url(#paint2_linear_10_4)"/>
<defs>
<linearGradient id="paint0_linear_10_4" x1="53.6436" y1="3.49989" x2="39.3634" y2="98.0045" gradientUnits="userSpaceOnUse">
<stop stop-color="#FF9C65"/>
<stop offset="0.324563" stop-color="#F9535F"/>
<stop offset="0.506171" stop-color="#BD0173"/>
<stop offset="0.721379" stop-color="#AF0484"/>
<stop offset="1" stop-color="#5D0D9B"/>
</linearGradient>
<linearGradient id="paint1_linear_10_4" x1="54.1352" y1="4.65648" x2="54.1352" y2="87.4765" gradientUnits="userSpaceOnUse">
<stop stop-color="#D53F1D" stop-opacity="0.9"/>
<stop offset="1" stop-color="#8427B3"/>
</linearGradient>
<linearGradient id="paint2_linear_10_4" x1="52.0509" y1="12.8941" x2="44.0449" y2="93.7596" gradientUnits="userSpaceOnUse">
<stop stop-color="#FFA794"/>
<stop offset="0.408872" stop-color="#CC629A"/>
<stop offset="0.52899" stop-color="#CC629A"/>
<stop offset="1" stop-color="#9013A1"/>
</linearGradient>
</defs>
</svg>
